<svg width="148" height="148" viewBox="0 0 148 148" fill="none" xmlns="http://www.w3.org/2000/svg">
<path d="M62.0292 79.5685C61.0563 78.5956 59.4838 78.5956 58.5109 79.5685C55.3284 82.751 53.5742 86.981 53.5742 91.4747C53.5742 95.9685 55.3284 100.198 58.5109 103.381C58.9961 103.866 59.6331 104.11 60.27 104.11C60.907 104.11 61.544 103.866 62.0292 103.381C63.0021 102.408 63.0021 100.835 62.0292 99.8626C59.7873 97.6207 58.5507 94.6398 58.5507 91.4747C58.5507 88.3097 59.7873 85.3288 62.0292 83.0869C62.9996 82.114 62.9996 80.539 62.0292 79.5685Z" fill="#FFA616"/>
<path d="M62.9076 32.5983C53.7534 31.0108 45.0147 37.1294 43.4098 46.2736C42.2752 52.7181 36.1143 57.0327 29.6723 55.9031C28.3112 55.6766 27.0298 56.5724 26.7909 57.926C26.552 59.2796 27.4578 60.571 28.8114 60.8074C29.7942 60.9791 30.7696 61.0637 31.7325 61.0637C39.7496 61.0637 46.8734 55.3009 48.3091 47.1346C49.4388 40.6925 55.6096 36.3779 62.0467 37.5026C63.4027 37.7241 64.6916 36.8308 64.928 35.4797C65.1669 34.1261 64.2612 32.8372 62.9076 32.5983Z" fill="#FFA616"/>
<path d="M137.599 56.443C135.673 53.4496 134.598 46.9603 134.837 43.0115C135.397 33.7876 130.495 24.6285 122.921 20.7418C121.461 19.9904 120.147 19.6122 118.987 19.2788C116.994 18.704 116.171 18.4651 115.417 16.9C111.445 8.64904 107.066 7.48952 98.7181 8.03196C97.9443 8.04689 96.8967 6.88737 95.8243 5.74279C93.9805 3.76962 91.5172 1.13458 87.6106 0.686699L86.3541 0.562288C82.1689 0.562288 78.1205 1.80889 75.2491 3.98112C74.4355 4.59322 73.4302 4.5982 72.7435 3.99605C69.3321 1.0027 64.1914 -1.21431 60.6556 0.74144C56.779 1.50533 54.2957 3.9637 52.4619 5.78011C51.0113 7.21582 50.0632 8.129 49.2745 8.02947C40.9364 7.4945 36.5497 8.64904 32.576 16.8975C31.8245 18.4626 31.0009 18.7015 29.0078 19.2763C27.8508 19.6097 26.537 19.9879 25.0739 20.7394C17.4998 24.6285 12.6004 33.7852 13.1578 43.009C13.3967 46.9603 12.3218 53.4472 10.3959 56.4405C5.64832 63.8281 5.64832 74.1418 10.3959 81.5268C11.1299 82.6664 12.2048 83.9927 13.4489 85.5304C15.6684 88.2724 19.3858 92.8582 19.2589 94.9583C18.6941 104.254 24.3673 114.966 31.9041 118.835C33.2602 119.532 33.4891 120.236 34.0017 122.369C34.2854 123.548 34.6387 125.014 35.4001 126.591C37.4479 130.849 40.6602 132.068 43.0041 132.964C45.3331 133.847 46.2961 134.215 46.6494 136.768C47.468 142.698 50.6405 146.696 55.3507 147.739C56.1395 147.91 56.9532 147.997 57.7768 147.997C63.0817 147.997 68.8693 144.477 72.5345 138.789C72.9749 138.107 73.7064 138.03 73.9975 138.03C74.2887 138.03 75.0202 138.104 75.4606 138.789C79.6956 145.36 86.7622 149.025 92.6443 147.741C97.3571 146.699 100.527 142.7 101.346 136.771C101.699 134.218 102.662 133.849 104.991 132.966C107.335 132.073 110.547 130.851 112.597 126.594C113.356 125.016 113.71 123.548 113.993 122.371C114.508 120.241 114.735 119.535 116.091 118.838C123.625 114.969 129.298 104.259 128.736 94.9608C128.609 92.8607 132.327 88.2724 134.546 85.5329C135.79 83.9952 136.865 82.6689 137.599 81.5293C142.347 74.1443 142.347 63.8305 137.599 56.443ZM136.114 70.4094C135.892 69.2624 134.929 68.379 133.718 68.379C132.344 68.379 131.229 69.4938 131.229 70.8673C131.229 72.2408 132.344 73.3555 133.718 73.3555C134.723 73.3555 135.579 72.7533 135.969 71.8949C135.621 74.1766 134.852 76.3712 133.68 78.3394C132.324 78.3593 131.229 79.4591 131.229 80.8202C131.229 81.0765 131.304 81.3079 131.374 81.5393C131.147 81.8205 130.916 82.1066 130.679 82.3977C130.376 82.771 130.067 83.1541 129.761 83.5373C129.448 83.3955 129.107 83.3059 128.741 83.3059C127.368 83.3059 126.253 84.4207 126.253 85.7942C126.253 86.4013 126.497 86.9387 126.858 87.3717C126.43 87.9937 126.036 88.6133 125.673 89.2329C125.218 88.6681 124.548 88.2824 123.765 88.2824C122.391 88.2824 121.276 89.3971 121.276 90.7706C121.276 92.1441 122.391 93.2588 123.765 93.2588C123.844 93.2588 123.914 93.219 123.991 93.2141C123.832 93.9108 123.73 94.5975 123.77 95.2619C123.829 96.2348 123.782 97.24 123.668 98.2552C122.341 98.31 121.276 99.3849 121.276 100.724C121.276 101.667 121.821 102.455 122.593 102.878C122.187 104.083 121.719 105.27 121.137 106.397C121.204 106.17 121.276 105.949 121.276 105.7C121.276 104.327 120.162 103.212 118.788 103.212C117.415 103.212 116.3 104.327 116.3 105.7C116.3 107.074 117.415 108.188 118.788 108.188C119.448 108.188 120.037 107.922 120.483 107.504C118.709 110.537 116.39 113.09 113.822 114.409C112.627 115.021 111.784 115.747 111.149 116.524C111.251 116.25 111.326 115.961 111.326 115.653C111.326 114.279 110.211 113.165 108.838 113.165C107.464 113.165 106.35 114.279 106.35 115.653C106.35 117.026 107.464 118.141 108.838 118.141C109.467 118.141 110.027 117.887 110.465 117.502C109.766 118.708 109.45 119.995 109.159 121.202C109.004 121.844 108.82 122.503 108.599 123.167C107.342 123.292 106.347 124.317 106.347 125.608C106.347 125.952 106.417 126.28 106.544 126.579C105.727 127.298 104.779 127.713 103.714 128.126C103.197 128.159 102.739 128.355 102.353 128.654C99.9349 129.627 97.0908 131.214 96.4165 136.091C96.0458 138.784 94.9037 142.148 91.5719 142.882C87.75 143.73 82.7263 140.874 79.6458 136.091C78.4191 134.19 76.3091 133.053 74 133.053C71.691 133.053 69.5809 134.19 68.3517 136.091C65.2738 140.874 60.2625 143.725 56.4281 142.882C53.0964 142.145 51.9543 138.784 51.5836 136.091C50.8271 130.617 47.3312 129.286 44.7782 128.316C42.7105 127.529 41.0758 126.907 39.8889 124.436C39.5256 123.685 39.3016 122.941 39.1076 122.207C39.12 122.107 39.1648 122.02 39.1648 121.918C39.1648 115.058 44.7459 109.477 51.6059 109.477C52.9795 109.477 54.0942 108.365 54.0942 106.989C54.0942 105.613 52.9795 104.501 51.6059 104.501C44.3627 104.501 38.1421 108.95 35.5195 115.255C35.1239 114.959 34.691 114.673 34.1809 114.409C28.4405 111.463 23.7925 102.515 24.2304 95.2619C24.2404 95.0852 24.2031 94.9036 24.1981 94.7244C24.2031 94.6622 24.2329 94.61 24.2329 94.5453C24.2329 86.3117 30.9287 79.6159 39.1623 79.6159C50.1379 79.6159 59.0682 70.6856 59.0682 59.71C59.0682 58.334 57.9534 57.2218 56.5799 57.2218C55.2064 57.2218 54.0917 58.334 54.0917 59.71C54.0917 67.9436 47.3959 74.6394 39.1623 74.6394C30.9014 74.6394 23.8025 79.7005 20.7942 86.884C19.7068 85.3562 18.4876 83.8409 17.3181 82.3977C16.2133 81.0342 15.1708 79.7478 14.586 78.8346C10.8562 73.037 10.8562 64.9328 14.586 59.1328C17.1813 55.0969 18.4254 47.6123 18.1268 42.7055C17.6914 35.507 21.568 28.1319 27.3482 25.1634C28.3808 24.6334 29.4035 24.3398 30.3888 24.0537C30.9213 23.8994 31.4687 23.7377 32.0186 23.5411C32.4391 24.3224 33.2353 24.8748 34.1858 24.8748C38.3014 24.8748 41.6505 28.224 41.6505 32.3395C41.6505 33.7155 42.7653 34.8277 44.1388 34.8277C45.5123 34.8277 46.627 33.7155 46.627 32.3395C46.627 26.2558 42.2303 21.1997 36.4526 20.1272C36.6641 19.7963 36.8682 19.448 37.0598 19.0523C39.4584 14.0684 41.3022 12.8716 45.8855 12.8716C46.7912 12.8716 47.8064 12.9188 48.9535 12.9935C52.0538 13.1851 54.1265 11.1323 55.9628 9.3134C57.7071 7.58905 59.3518 5.95677 61.9222 5.56612L62.7408 5.41434L63.1339 5.05106C64.0471 4.6405 66.9558 5.5288 69.464 7.73088C71.783 9.76377 75.0998 9.94292 77.7299 8.2758C78.1006 8.49726 78.5112 8.6565 78.974 8.6565C80.2953 8.6565 81.3478 7.61891 81.4324 6.32005C82.6267 5.91945 83.933 5.65818 85.2742 5.56861L86.4387 5.591C86.4785 5.591 86.5109 5.60842 86.5507 5.60842C86.5109 5.79753 86.4412 5.97419 86.4412 6.17325C86.4412 7.54675 87.5559 8.66148 88.9294 8.66148C89.7008 8.66148 90.3651 8.28825 90.8205 7.73586C91.2559 8.15388 91.7038 8.61918 92.1915 9.13922C92.2338 9.18401 92.2761 9.2288 92.3184 9.27359C91.7784 9.72893 91.4176 10.3883 91.4176 11.1497C91.4176 12.5232 92.5324 13.6379 93.9059 13.6379C94.834 13.6379 95.6128 13.1055 96.0408 12.3515C96.9291 12.7919 97.9169 13.0482 99.0416 12.996C100.199 12.9238 101.179 12.894 102.09 12.8964C102.54 13.3543 103.165 13.6379 103.859 13.6379C104.369 13.6379 104.817 13.4463 105.212 13.1826C106.031 13.3792 106.73 13.7101 107.375 14.1654C106.768 14.6183 106.347 15.31 106.347 16.1262C106.347 17.4997 107.462 18.6144 108.835 18.6144C109.435 18.6144 109.962 18.3755 110.39 18.0222C110.572 18.3656 110.749 18.6691 110.935 19.0548C111.122 19.443 111.326 19.7864 111.533 20.1123C111.401 20.4159 111.323 20.7493 111.323 21.1026C111.323 22.4761 112.438 23.5909 113.812 23.5909C114.289 23.5909 114.71 23.4217 115.088 23.1878C115.887 23.5461 116.696 23.7924 117.477 24.0188C116.785 24.4617 116.3 25.1983 116.3 26.0791C116.3 27.4526 117.415 28.5673 118.788 28.5673C120.162 28.5673 121.276 27.4526 121.276 26.0791C121.276 25.8701 121.207 25.681 121.157 25.4869C124.195 27.2212 126.644 30.1722 128.171 33.6583C127.079 33.922 126.253 34.8601 126.253 36.032C126.253 37.4055 127.368 38.5203 128.741 38.5203C129.04 38.5203 129.316 38.4456 129.582 38.3511C129.828 39.7893 129.96 41.2498 129.871 42.7104C129.851 43.0488 129.856 43.427 129.848 43.7878C129.51 43.6162 129.144 43.4992 128.741 43.4992C127.368 43.4992 126.253 44.6139 126.253 45.9874C126.253 47.3609 127.368 48.4757 128.741 48.4757C129.241 48.4757 129.682 48.2915 130.072 48.0353C130.5 51.8099 131.52 55.8035 133.096 58.553C132.031 58.8367 131.232 59.7623 131.232 60.9143C131.232 62.2878 132.347 63.4026 133.72 63.4026C134.272 63.4026 134.755 63.1886 135.168 62.885C135.987 65.2886 136.3 67.8615 136.114 70.4094Z" fill="#FFA616"/>
<path d="M93.906 133.073C95.2802 133.073 96.3942 131.959 96.3942 130.585C96.3942 129.211 95.2802 128.097 93.906 128.097C92.5317 128.097 91.4177 129.211 91.4177 130.585C91.4177 131.959 92.5317 133.073 93.906 133.073Z" fill="#FFA616"/>
<path d="M83.9531 133.073C85.3273 133.073 86.4413 131.959 86.4413 130.585C86.4413 129.211 85.3273 128.097 83.9531 128.097C82.5789 128.097 81.4648 129.211 81.4648 130.585C81.4648 131.959 82.5789 133.073 83.9531 133.073Z" fill="#FFA616"/>
<path d="M88.9294 128.097C90.3036 128.097 91.4176 126.983 91.4176 125.608C91.4176 124.234 90.3036 123.12 88.9294 123.12C87.5552 123.12 86.4412 124.234 86.4412 125.608C86.4412 126.983 87.5552 128.097 88.9294 128.097Z" fill="#FFA616"/>
<path d="M98.8823 128.097C100.256 128.097 101.371 126.983 101.371 125.608C101.371 124.234 100.256 123.12 98.8823 123.12C97.5081 123.12 96.394 124.234 96.394 125.608C96.394 126.983 97.5081 128.097 98.8823 128.097Z" fill="#FFA616"/>
<path d="M78.9765 128.097C80.3507 128.097 81.4647 126.983 81.4647 125.608C81.4647 124.234 80.3507 123.12 78.9765 123.12C77.6023 123.12 76.4883 124.234 76.4883 125.608C76.4883 126.983 77.6023 128.097 78.9765 128.097Z" fill="#FFA616"/>
<path d="M98.8823 118.143C100.256 118.143 101.371 117.029 101.371 115.655C101.371 114.281 100.256 113.167 98.8823 113.167C97.5081 113.167 96.394 114.281 96.394 115.655C96.394 117.029 97.5081 118.143 98.8823 118.143Z" fill="#FFA616"/>
<path d="M78.9765 118.143C80.3507 118.143 81.4647 117.029 81.4647 115.655C81.4647 114.281 80.3507 113.167 78.9765 113.167C77.6023 113.167 76.4883 114.281 76.4883 115.655C76.4883 117.029 77.6023 118.143 78.9765 118.143Z" fill="#FFA616"/>
<path d="M83.9531 113.167C85.3273 113.167 86.4413 112.053 86.4413 110.679C86.4413 109.305 85.3273 108.191 83.9531 108.191C82.5789 108.191 81.4648 109.305 81.4648 110.679C81.4648 112.053 82.5789 113.167 83.9531 113.167Z" fill="#FFA616"/>
<path d="M88.9294 108.191C90.3036 108.191 91.4176 107.077 91.4176 105.703C91.4176 104.328 90.3036 103.214 88.9294 103.214C87.5552 103.214 86.4412 104.328 86.4412 105.703C86.4412 107.077 87.5552 108.191 88.9294 108.191Z" fill="#FFA616"/>
<path d="M98.8823 108.191C100.256 108.191 101.371 107.077 101.371 105.703C101.371 104.328 100.256 103.214 98.8823 103.214C97.5081 103.214 96.394 104.328 96.394 105.703C96.394 107.077 97.5081 108.191 98.8823 108.191Z" fill="#FFA616"/>
<path d="M78.9765 108.191C80.3507 108.191 81.4647 107.077 81.4647 105.703C81.4647 104.328 80.3507 103.214 78.9765 103.214C77.6023 103.214 76.4883 104.328 76.4883 105.703C76.4883 107.077 77.6023 108.191 78.9765 108.191Z" fill="#FFA616"/>
<path d="M93.906 103.214C95.2802 103.214 96.3942 102.1 96.3942 100.726C96.3942 99.3518 95.2802 98.2378 93.906 98.2378C92.5317 98.2378 91.4177 99.3518 91.4177 100.726C91.4177 102.1 92.5317 103.214 93.906 103.214Z" fill="#FFA616"/>
<path d="M78.9765 98.2377C80.3507 98.2377 81.4647 97.1237 81.4647 95.7495C81.4647 94.3752 80.3507 93.2612 78.9765 93.2612C77.6023 93.2612 76.4883 94.3752 76.4883 95.7495C76.4883 97.1237 77.6023 98.2377 78.9765 98.2377Z" fill="#FFA616"/>
<path d="M93.906 93.2611C95.2802 93.2611 96.3942 92.1471 96.3942 90.7729C96.3942 89.3987 95.2802 88.2847 93.906 88.2847C92.5317 88.2847 91.4177 89.3987 91.4177 90.7729C91.4177 92.1471 92.5317 93.2611 93.906 93.2611Z" fill="#FFA616"/>
<path d="M83.9531 93.2611C85.3273 93.2611 86.4413 92.1471 86.4413 90.7729C86.4413 89.3987 85.3273 88.2847 83.9531 88.2847C82.5789 88.2847 81.4648 89.3987 81.4648 90.7729C81.4648 92.1471 82.5789 93.2611 83.9531 93.2611Z" fill="#FFA616"/>
<path d="M78.9765 88.2851C80.3507 88.2851 81.4647 87.171 81.4647 85.7968C81.4647 84.4226 80.3507 83.3086 78.9765 83.3086C77.6023 83.3086 76.4883 84.4226 76.4883 85.7968C76.4883 87.171 77.6023 88.2851 78.9765 88.2851Z" fill="#FFA616"/>
<path d="M83.9531 83.3085C85.3273 83.3085 86.4413 82.1945 86.4413 80.8203C86.4413 79.446 85.3273 78.332 83.9531 78.332C82.5789 78.332 81.4648 79.446 81.4648 80.8203C81.4648 82.1945 82.5789 83.3085 83.9531 83.3085Z" fill="#FFA616"/>
<path d="M88.9294 78.3319C90.3036 78.3319 91.4176 77.2179 91.4176 75.8437C91.4176 74.4695 90.3036 73.3555 88.9294 73.3555C87.5552 73.3555 86.4412 74.4695 86.4412 75.8437C86.4412 77.2179 87.5552 78.3319 88.9294 78.3319Z" fill="#FFA616"/>
<path d="M98.8823 78.3319C100.256 78.3319 101.371 77.2179 101.371 75.8437C101.371 74.4695 100.256 73.3555 98.8823 73.3555C97.5081 73.3555 96.394 74.4695 96.394 75.8437C96.394 77.2179 97.5081 78.3319 98.8823 78.3319Z" fill="#FFA616"/>
<path d="M78.9765 78.3319C80.3507 78.3319 81.4647 77.2179 81.4647 75.8437C81.4647 74.4695 80.3507 73.3555 78.9765 73.3555C77.6023 73.3555 76.4883 74.4695 76.4883 75.8437C76.4883 77.2179 77.6023 78.3319 78.9765 78.3319Z" fill="#FFA616"/>
<path d="M93.906 73.3554C95.2802 73.3554 96.3942 72.2413 96.3942 70.8671C96.3942 69.4929 95.2802 68.3789 93.906 68.3789C92.5317 68.3789 91.4177 69.4929 91.4177 70.8671C91.4177 72.2413 92.5317 73.3554 93.906 73.3554Z" fill="#FFA616"/>
<path d="M88.9294 68.3788C90.3036 68.3788 91.4176 67.2648 91.4176 65.8906C91.4176 64.5164 90.3036 63.4023 88.9294 63.4023C87.5552 63.4023 86.4412 64.5164 86.4412 65.8906C86.4412 67.2648 87.5552 68.3788 88.9294 68.3788Z" fill="#FFA616"/>
<path d="M98.8823 68.3788C100.256 68.3788 101.371 67.2648 101.371 65.8906C101.371 64.5164 100.256 63.4023 98.8823 63.4023C97.5081 63.4023 96.394 64.5164 96.394 65.8906C96.394 67.2648 97.5081 68.3788 98.8823 68.3788Z" fill="#FFA616"/>
<path d="M78.9765 68.3788C80.3507 68.3788 81.4647 67.2648 81.4647 65.8906C81.4647 64.5164 80.3507 63.4023 78.9765 63.4023C77.6023 63.4023 76.4883 64.5164 76.4883 65.8906C76.4883 67.2648 77.6023 68.3788 78.9765 68.3788Z" fill="#FFA616"/>
<path d="M83.9531 63.4027C85.3273 63.4027 86.4413 62.2887 86.4413 60.9145C86.4413 59.5403 85.3273 58.4263 83.9531 58.4263C82.5789 58.4263 81.4648 59.5403 81.4648 60.9145C81.4648 62.2887 82.5789 63.4027 83.9531 63.4027Z" fill="#FFA616"/>
<path d="M88.9294 58.4262C90.3036 58.4262 91.4176 57.3122 91.4176 55.9379C91.4176 54.5637 90.3036 53.4497 88.9294 53.4497C87.5552 53.4497 86.4412 54.5637 86.4412 55.9379C86.4412 57.3122 87.5552 58.4262 88.9294 58.4262Z" fill="#FFA616"/>
<path d="M93.906 53.4496C95.2802 53.4496 96.3942 52.3356 96.3942 50.9614C96.3942 49.5872 95.2802 48.4731 93.906 48.4731C92.5317 48.4731 91.4177 49.5872 91.4177 50.9614C91.4177 52.3356 92.5317 53.4496 93.906 53.4496Z" fill="#FFA616"/>
<path d="M83.9531 53.4496C85.3273 53.4496 86.4413 52.3356 86.4413 50.9614C86.4413 49.5872 85.3273 48.4731 83.9531 48.4731C82.5789 48.4731 81.4648 49.5872 81.4648 50.9614C81.4648 52.3356 82.5789 53.4496 83.9531 53.4496Z" fill="#FFA616"/>
<path d="M78.9765 48.473C80.3507 48.473 81.4647 47.359 81.4647 45.9848C81.4647 44.6106 80.3507 43.4966 78.9765 43.4966C77.6023 43.4966 76.4883 44.6106 76.4883 45.9848C76.4883 47.359 77.6023 48.473 78.9765 48.473Z" fill="#FFA616"/>
<path d="M93.906 43.4965C95.2802 43.4965 96.3942 42.3825 96.3942 41.0083C96.3942 39.634 95.2802 38.52 93.906 38.52C92.5317 38.52 91.4177 39.634 91.4177 41.0083C91.4177 42.3825 92.5317 43.4965 93.906 43.4965Z" fill="#FFA616"/>
<path d="M83.9531 43.4965C85.3273 43.4965 86.4413 42.3825 86.4413 41.0083C86.4413 39.634 85.3273 38.52 83.9531 38.52C82.5789 38.52 81.4648 39.634 81.4648 41.0083C81.4648 42.3825 82.5789 43.4965 83.9531 43.4965Z" fill="#FFA616"/>
<path d="M88.9294 38.5204C90.3036 38.5204 91.4176 37.4064 91.4176 36.0322C91.4176 34.658 90.3036 33.5439 88.9294 33.5439C87.5552 33.5439 86.4412 34.658 86.4412 36.0322C86.4412 37.4064 87.5552 38.5204 88.9294 38.5204Z" fill="#FFA616"/>
<path d="M98.8823 38.5204C100.256 38.5204 101.371 37.4064 101.371 36.0322C101.371 34.658 100.256 33.5439 98.8823 33.5439C97.5081 33.5439 96.394 34.658 96.394 36.0322C96.394 37.4064 97.5081 38.5204 98.8823 38.5204Z" fill="#FFA616"/>
<path d="M93.906 33.5438C95.2802 33.5438 96.3942 32.4298 96.3942 31.0556C96.3942 29.6814 95.2802 28.5674 93.906 28.5674C92.5317 28.5674 91.4177 29.6814 91.4177 31.0556C91.4177 32.4298 92.5317 33.5438 93.906 33.5438Z" fill="#FFA616"/>
<path d="M83.9531 33.5438C85.3273 33.5438 86.4413 32.4298 86.4413 31.0556C86.4413 29.6814 85.3273 28.5674 83.9531 28.5674C82.5789 28.5674 81.4648 29.6814 81.4648 31.0556C81.4648 32.4298 82.5789 33.5438 83.9531 33.5438Z" fill="#FFA616"/>
<path d="M78.9765 28.5673C80.3507 28.5673 81.4647 27.4533 81.4647 26.0791C81.4647 24.7048 80.3507 23.5908 78.9765 23.5908C77.6023 23.5908 76.4883 24.7048 76.4883 26.0791C76.4883 27.4533 77.6023 28.5673 78.9765 28.5673Z" fill="#FFA616"/>
<path d="M93.906 23.5907C95.2802 23.5907 96.3942 22.4767 96.3942 21.1025C96.3942 19.7283 95.2802 18.6143 93.906 18.6143C92.5317 18.6143 91.4177 19.7283 91.4177 21.1025C91.4177 22.4767 92.5317 23.5907 93.906 23.5907Z" fill="#FFA616"/>
<path d="M98.8823 18.6146C100.256 18.6146 101.371 17.5006 101.371 16.1264C101.371 14.7522 100.256 13.6382 98.8823 13.6382C97.5081 13.6382 96.394 14.7522 96.394 16.1264C96.394 17.5006 97.5081 18.6146 98.8823 18.6146Z" fill="#FFA616"/>
<path d="M78.9765 18.6146C80.3507 18.6146 81.4647 17.5006 81.4647 16.1264C81.4647 14.7522 80.3507 13.6382 78.9765 13.6382C77.6023 13.6382 76.4883 14.7522 76.4883 16.1264C76.4883 17.5006 77.6023 18.6146 78.9765 18.6146Z" fill="#FFA616"/>
<path d="M83.9531 13.6381C85.3273 13.6381 86.4413 12.5241 86.4413 11.1499C86.4413 9.77564 85.3273 8.66162 83.9531 8.66162C82.5789 8.66162 81.4648 9.77564 81.4648 11.1499C81.4648 12.5241 82.5789 13.6381 83.9531 13.6381Z" fill="#FFA616"/>
<path d="M103.859 123.12C105.233 123.12 106.347 122.006 106.347 120.632C106.347 119.258 105.233 118.144 103.859 118.144C102.485 118.144 101.371 119.258 101.371 120.632C101.371 122.006 102.485 123.12 103.859 123.12Z" fill="#FFA616"/>
<path d="M113.812 113.167C115.186 113.167 116.3 112.053 116.3 110.679C116.3 109.305 115.186 108.191 113.812 108.191C112.438 108.191 111.323 109.305 111.323 110.679C111.323 112.053 112.438 113.167 113.812 113.167Z" fill="#FFA616"/>
<path d="M108.835 108.191C110.209 108.191 111.323 107.077 111.323 105.703C111.323 104.328 110.209 103.214 108.835 103.214C107.461 103.214 106.347 104.328 106.347 105.703C106.347 107.077 107.461 108.191 108.835 108.191Z" fill="#FFA616"/>
<path d="M113.812 103.214C115.186 103.214 116.3 102.1 116.3 100.726C116.3 99.3518 115.186 98.2378 113.812 98.2378C112.438 98.2378 111.323 99.3518 111.323 100.726C111.323 102.1 112.438 103.214 113.812 103.214Z" fill="#FFA616"/>
<path d="M118.788 98.2377C120.162 98.2377 121.277 97.1237 121.277 95.7495C121.277 94.3752 120.162 93.2612 118.788 93.2612C117.414 93.2612 116.3 94.3752 116.3 95.7495C116.3 97.1237 117.414 98.2377 118.788 98.2377Z" fill="#FFA616"/>
<path d="M113.812 93.2611C115.186 93.2611 116.3 92.1471 116.3 90.7729C116.3 89.3987 115.186 88.2847 113.812 88.2847C112.438 88.2847 111.323 89.3987 111.323 90.7729C111.323 92.1471 112.438 93.2611 113.812 93.2611Z" fill="#FFA616"/>
<path d="M103.859 93.2611C105.233 93.2611 106.347 92.1471 106.347 90.7729C106.347 89.3987 105.233 88.2847 103.859 88.2847C102.485 88.2847 101.371 89.3987 101.371 90.7729C101.371 92.1471 102.485 93.2611 103.859 93.2611Z" fill="#FFA616"/>
<path d="M113.812 83.3085C115.186 83.3085 116.3 82.1945 116.3 80.8203C116.3 79.446 115.186 78.332 113.812 78.332C112.438 78.332 111.323 79.446 111.323 80.8203C111.323 82.1945 112.438 83.3085 113.812 83.3085Z" fill="#FFA616"/>
<path d="M123.765 83.3085C125.139 83.3085 126.253 82.1945 126.253 80.8203C126.253 79.446 125.139 78.332 123.765 78.332C122.39 78.332 121.276 79.446 121.276 80.8203C121.276 82.1945 122.39 83.3085 123.765 83.3085Z" fill="#FFA616"/>
<path d="M103.859 83.3085C105.233 83.3085 106.347 82.1945 106.347 80.8203C106.347 79.446 105.233 78.332 103.859 78.332C102.485 78.332 101.371 79.446 101.371 80.8203C101.371 82.1945 102.485 83.3085 103.859 83.3085Z" fill="#FFA616"/>
<path d="M113.812 73.3554C115.186 73.3554 116.3 72.2413 116.3 70.8671C116.3 69.4929 115.186 68.3789 113.812 68.3789C112.438 68.3789 111.323 69.4929 111.323 70.8671C111.323 72.2413 112.438 73.3554 113.812 73.3554Z" fill="#FFA616"/>
<path d="M123.765 73.3554C125.139 73.3554 126.253 72.2413 126.253 70.8671C126.253 69.4929 125.139 68.3789 123.765 68.3789C122.39 68.3789 121.276 69.4929 121.276 70.8671C121.276 72.2413 122.39 73.3554 123.765 73.3554Z" fill="#FFA616"/>
<path d="M108.835 68.3788C110.209 68.3788 111.323 67.2648 111.323 65.8906C111.323 64.5164 110.209 63.4023 108.835 63.4023C107.461 63.4023 106.347 64.5164 106.347 65.8906C106.347 67.2648 107.461 68.3788 108.835 68.3788Z" fill="#FFA616"/>
<path d="M113.812 63.4027C115.186 63.4027 116.3 62.2887 116.3 60.9145C116.3 59.5403 115.186 58.4263 113.812 58.4263C112.438 58.4263 111.323 59.5403 111.323 60.9145C111.323 62.2887 112.438 63.4027 113.812 63.4027Z" fill="#FFA616"/>
<path d="M118.788 58.4262C120.162 58.4262 121.277 57.3122 121.277 55.9379C121.277 54.5637 120.162 53.4497 118.788 53.4497C117.414 53.4497 116.3 54.5637 116.3 55.9379C116.3 57.3122 117.414 58.4262 118.788 58.4262Z" fill="#FFA616"/>
<path d="M108.835 58.4262C110.209 58.4262 111.323 57.3122 111.323 55.9379C111.323 54.5637 110.209 53.4497 108.835 53.4497C107.461 53.4497 106.347 54.5637 106.347 55.9379C106.347 57.3122 107.461 58.4262 108.835 58.4262Z" fill="#FFA616"/>
<path d="M113.812 53.4496C115.186 53.4496 116.3 52.3356 116.3 50.9614C116.3 49.5872 115.186 48.4731 113.812 48.4731C112.438 48.4731 111.323 49.5872 111.323 50.9614C111.323 52.3356 112.438 53.4496 113.812 53.4496Z" fill="#FFA616"/>
<path d="M103.859 53.4496C105.233 53.4496 106.347 52.3356 106.347 50.9614C106.347 49.5872 105.233 48.4731 103.859 48.4731C102.485 48.4731 101.371 49.5872 101.371 50.9614C101.371 52.3356 102.485 53.4496 103.859 53.4496Z" fill="#FFA616"/>
<path d="M118.788 48.473C120.162 48.473 121.277 47.359 121.277 45.9848C121.277 44.6106 120.162 43.4966 118.788 43.4966C117.414 43.4966 116.3 44.6106 116.3 45.9848C116.3 47.359 117.414 48.473 118.788 48.473Z" fill="#FFA616"/>
<path d="M123.765 43.4965C125.139 43.4965 126.253 42.3825 126.253 41.0083C126.253 39.634 125.139 38.52 123.765 38.52C122.39 38.52 121.276 39.634 121.276 41.0083C121.276 42.3825 122.39 43.4965 123.765 43.4965Z" fill="#FFA616"/>
<path d="M118.788 38.5204C120.162 38.5204 121.277 37.4064 121.277 36.0322C121.277 34.658 120.162 33.5439 118.788 33.5439C117.414 33.5439 116.3 34.658 116.3 36.0322C116.3 37.4064 117.414 38.5204 118.788 38.5204Z" fill="#FFA616"/>
<path d="M108.835 38.5204C110.209 38.5204 111.323 37.4064 111.323 36.0322C111.323 34.658 110.209 33.5439 108.835 33.5439C107.461 33.5439 106.347 34.658 106.347 36.0322C106.347 37.4064 107.461 38.5204 108.835 38.5204Z" fill="#FFA616"/>
<path d="M123.765 33.5438C125.139 33.5438 126.253 32.4298 126.253 31.0556C126.253 29.6814 125.139 28.5674 123.765 28.5674C122.39 28.5674 121.276 29.6814 121.276 31.0556C121.276 32.4298 122.39 33.5438 123.765 33.5438Z" fill="#FFA616"/>
<path d="M103.859 33.5438C105.233 33.5438 106.347 32.4298 106.347 31.0556C106.347 29.6814 105.233 28.5674 103.859 28.5674C102.485 28.5674 101.371 29.6814 101.371 31.0556C101.371 32.4298 102.485 33.5438 103.859 33.5438Z" fill="#FFA616"/>
<path d="M108.835 28.5673C110.209 28.5673 111.323 27.4533 111.323 26.0791C111.323 24.7048 110.209 23.5908 108.835 23.5908C107.461 23.5908 106.347 24.7048 106.347 26.0791C106.347 27.4533 107.461 28.5673 108.835 28.5673Z" fill="#FFA616"/>
<path d="M128.741 68.3788C130.115 68.3788 131.229 67.2648 131.229 65.8906C131.229 64.5164 130.115 63.4023 128.741 63.4023C127.367 63.4023 126.253 64.5164 126.253 65.8906C126.253 67.2648 127.367 68.3788 128.741 68.3788Z" fill="#FFA616"/>
<path d="M128.741 58.4262C130.115 58.4262 131.229 57.3122 131.229 55.9379C131.229 54.5637 130.115 53.4497 128.741 53.4497C127.367 53.4497 126.253 54.5637 126.253 55.9379C126.253 57.3122 127.367 58.4262 128.741 58.4262Z" fill="#FFA616"/>
</svg>
