<svg width="143" height="143" viewBox="0 0 143 143" fill="none" xmlns="http://www.w3.org/2000/svg">
<path d="M66.3502 100.006L58.2471 91.9029C56.851 90.5068 56.851 88.2432 58.2471 86.8471C59.6432 85.451 61.9068 85.451 63.3029 86.8471L77.6029 101.147C78.999 102.543 78.999 104.807 77.6029 106.203L63.3029 120.503C61.9068 121.899 59.6432 121.899 58.2471 120.503C56.851 119.107 56.851 116.843 58.2471 115.447L66.5265 107.168C59.822 106.945 53.3609 106.274 47.2756 105.209C52.4629 123.649 61.654 135.85 71.5 135.85C85.8365 135.85 98.7844 109.983 100.006 76.6498L91.9029 84.7529C90.5068 86.149 88.2432 86.149 86.8471 84.7529C85.451 83.3568 85.451 81.0932 86.8471 79.6971L101.147 65.3971C102.543 64.001 104.807 64.001 106.203 65.3971L120.503 79.6971C121.899 81.0932 121.899 83.3568 120.503 84.7529C119.107 86.149 116.843 86.149 115.447 84.7529L107.168 76.4735C105.94 113.436 91.1009 143 71.5 143C57.027 143 45.1505 126.881 39.4324 103.568C16.1186 97.8495 0 85.973 0 71.5C0 57.027 16.1186 45.1505 39.4324 39.4324C45.1505 16.1186 57.027 0 71.5 0C82.2406 0 91.7087 8.85802 98.2651 23.6482C99.0653 25.4533 98.2507 27.5652 96.4457 28.3653C94.6407 29.1655 92.5287 28.3509 91.7286 26.5459C86.1933 14.0593 78.8082 7.15 71.5 7.15C61.654 7.15 52.4629 19.3507 47.2756 37.7912C54.853 36.4644 63.0129 35.75 71.5 35.75C110.748 35.75 143 51.0273 143 71.5C143 82.2406 134.142 91.7087 119.352 98.2651C117.547 99.0653 115.435 98.2507 114.635 96.4457C113.835 94.6407 114.649 92.5287 116.454 91.7286C128.941 86.1933 135.85 78.8082 135.85 71.5C135.85 56.4331 107.28 42.9 71.5 42.9C62.1986 42.9 53.3845 43.8146 45.4329 45.4329C43.8146 53.3845 42.9 62.1986 42.9 71.5C42.9 80.8014 43.8146 89.6155 45.4329 97.5671C51.9018 98.8837 58.9416 99.7345 66.3502 100.006ZM37.7912 47.2756C19.3507 52.4629 7.15 61.654 7.15 71.5C7.15 81.346 19.3507 90.5371 37.7912 95.7245C36.4644 88.147 35.75 79.9871 35.75 71.5C35.75 63.0129 36.4644 54.853 37.7912 47.2756Z" fill="currentColor"/>
</svg>
