<svg width="363" height="363" viewBox="0 0 363 363" fill="none" xmlns="http://www.w3.org/2000/svg">
<circle cx="181.5" cy="181.5" r="180.5" stroke="#FFE4BA" stroke-width="2" stroke-linecap="round" stroke-dasharray="100 100"/>
<path d="M170.029 135.569C169.056 134.596 167.484 134.596 166.511 135.569C163.328 138.751 161.574 142.981 161.574 147.475C161.574 151.968 163.328 156.198 166.511 159.381C166.996 159.866 167.633 160.11 168.27 160.11C168.907 160.11 169.544 159.866 170.029 159.381C171.002 158.408 171.002 156.835 170.029 155.863C167.787 153.621 166.551 150.64 166.551 147.475C166.551 144.31 167.787 141.329 170.029 139.087C171 138.114 171 136.539 170.029 135.569Z" fill="#FFA616"/>
<path d="M170.908 88.5983C161.753 87.0108 153.015 93.1294 151.41 102.274C150.275 108.718 144.114 113.033 137.672 111.903C136.311 111.677 135.03 112.572 134.791 113.926C134.552 115.28 135.458 116.571 136.811 116.807C137.794 116.979 138.77 117.064 139.733 117.064C147.75 117.064 154.873 111.301 156.309 103.135C157.439 96.6925 163.61 92.3779 170.047 93.5026C171.403 93.7241 172.692 92.8308 172.928 91.4797C173.167 90.1261 172.261 88.8372 170.908 88.5983Z" fill="#FFA616"/>
<path d="M245.599 112.443C243.673 109.45 242.598 102.96 242.837 99.0115C243.397 89.7876 238.495 80.6285 230.921 76.7418C229.461 75.9904 228.147 75.6122 226.987 75.2788C224.994 74.704 224.171 74.4651 223.417 72.9C219.445 64.649 215.066 63.4895 206.718 64.032C205.944 64.0469 204.897 62.8874 203.824 61.7428C201.981 59.7696 199.517 57.1346 195.611 56.6867L194.354 56.5623C190.169 56.5623 186.121 57.8089 183.249 59.9811C182.435 60.5932 181.43 60.5982 180.743 59.996C177.332 57.0027 172.191 54.7857 168.656 56.7414C164.779 57.5053 162.296 59.9637 160.462 61.7801C159.011 63.2158 158.063 64.129 157.274 64.0295C148.936 63.4945 144.55 64.649 140.576 72.8975C139.825 74.4626 139.001 74.7015 137.008 75.2763C135.851 75.6097 134.537 75.9879 133.074 76.7394C125.5 80.6285 120.6 89.7852 121.158 99.009C121.397 102.96 120.322 109.447 118.396 112.44C113.648 119.828 113.648 130.142 118.396 137.527C119.13 138.666 120.205 139.993 121.449 141.53C123.668 144.272 127.386 148.858 127.259 150.958C126.694 160.254 132.367 170.966 139.904 174.835C141.26 175.532 141.489 176.236 142.002 178.369C142.285 179.548 142.639 181.014 143.4 182.591C145.448 186.849 148.66 188.068 151.004 188.964C153.333 189.847 154.296 190.215 154.649 192.768C155.468 198.698 158.641 202.696 163.351 203.739C164.14 203.91 164.953 203.997 165.777 203.997C171.082 203.997 176.869 200.477 180.534 194.789C180.975 194.107 181.706 194.03 181.998 194.03C182.289 194.03 183.02 194.104 183.461 194.789C187.696 201.36 194.762 205.025 200.644 203.741C205.357 202.699 208.527 198.7 209.346 192.771C209.699 190.218 210.662 189.849 212.991 188.966C215.335 188.073 218.547 186.851 220.597 182.594C221.356 181.016 221.71 179.548 221.993 178.371C222.508 176.241 222.735 175.535 224.091 174.838C231.625 170.969 237.298 160.259 236.736 150.961C236.609 148.861 240.327 144.272 242.546 141.533C243.79 139.995 244.865 138.669 245.599 137.529C250.347 130.144 250.347 119.831 245.599 112.443ZM244.114 126.409C243.892 125.262 242.929 124.379 241.718 124.379C240.344 124.379 239.229 125.494 239.229 126.867C239.229 128.241 240.344 129.355 241.718 129.355C242.723 129.355 243.579 128.753 243.969 127.895C243.621 130.177 242.852 132.371 241.68 134.339C240.324 134.359 239.229 135.459 239.229 136.82C239.229 137.076 239.304 137.308 239.374 137.539C239.147 137.82 238.916 138.107 238.679 138.398C238.376 138.771 238.067 139.154 237.761 139.537C237.448 139.396 237.107 139.306 236.741 139.306C235.368 139.306 234.253 140.421 234.253 141.794C234.253 142.401 234.497 142.939 234.858 143.372C234.43 143.994 234.036 144.613 233.673 145.233C233.218 144.668 232.548 144.282 231.765 144.282C230.391 144.282 229.276 145.397 229.276 146.771C229.276 148.144 230.391 149.259 231.765 149.259C231.844 149.259 231.914 149.219 231.991 149.214C231.832 149.911 231.73 150.598 231.77 151.262C231.829 152.235 231.782 153.24 231.668 154.255C230.341 154.31 229.276 155.385 229.276 156.724C229.276 157.667 229.821 158.455 230.593 158.878C230.187 160.083 229.719 161.27 229.137 162.397C229.204 162.17 229.276 161.949 229.276 161.7C229.276 160.327 228.162 159.212 226.788 159.212C225.415 159.212 224.3 160.327 224.3 161.7C224.3 163.074 225.415 164.188 226.788 164.188C227.448 164.188 228.037 163.922 228.483 163.504C226.709 166.537 224.39 169.09 221.822 170.409C220.627 171.021 219.784 171.747 219.149 172.524C219.251 172.25 219.326 171.961 219.326 171.653C219.326 170.279 218.211 169.165 216.838 169.165C215.464 169.165 214.35 170.279 214.35 171.653C214.35 173.026 215.464 174.141 216.838 174.141C217.467 174.141 218.027 173.887 218.465 173.502C217.766 174.708 217.45 175.995 217.159 177.202C217.004 177.844 216.82 178.503 216.599 179.167C215.342 179.292 214.347 180.317 214.347 181.608C214.347 181.952 214.417 182.28 214.544 182.579C213.727 183.298 212.779 183.713 211.714 184.126C211.197 184.159 210.739 184.355 210.353 184.654C207.935 185.627 205.091 187.214 204.417 192.091C204.046 194.784 202.904 198.148 199.572 198.882C195.75 199.73 190.726 196.874 187.646 192.091C186.419 190.19 184.309 189.053 182 189.053C179.691 189.053 177.581 190.19 176.352 192.091C173.274 196.874 168.263 199.725 164.428 198.882C161.096 198.145 159.954 194.784 159.584 192.091C158.827 186.617 155.331 185.286 152.778 184.316C150.711 183.529 149.076 182.907 147.889 180.436C147.526 179.685 147.302 178.941 147.108 178.207C147.12 178.107 147.165 178.02 147.165 177.918C147.165 171.058 152.746 165.477 159.606 165.477C160.979 165.477 162.094 164.365 162.094 162.989C162.094 161.613 160.979 160.501 159.606 160.501C152.363 160.501 146.142 164.95 143.52 171.255C143.124 170.959 142.691 170.673 142.181 170.409C136.441 167.463 131.793 158.515 132.23 151.262C132.24 151.085 132.203 150.904 132.198 150.724C132.203 150.662 132.233 150.61 132.233 150.545C132.233 142.312 138.929 135.616 147.162 135.616C158.138 135.616 167.068 126.686 167.068 115.71C167.068 114.334 165.953 113.222 164.58 113.222C163.206 113.222 162.092 114.334 162.092 115.71C162.092 123.944 155.396 130.639 147.162 130.639C138.901 130.639 131.802 135.7 128.794 142.884C127.707 141.356 126.488 139.841 125.318 138.398C124.213 137.034 123.171 135.748 122.586 134.835C118.856 129.037 118.856 120.933 122.586 115.133C125.181 111.097 126.425 103.612 126.127 98.7055C125.691 91.507 129.568 84.1319 135.348 81.1634C136.381 80.6334 137.403 80.3398 138.389 80.0537C138.921 79.8994 139.469 79.7377 140.019 79.5411C140.439 80.3224 141.235 80.8748 142.186 80.8748C146.301 80.8748 149.651 84.224 149.651 88.3395C149.651 89.7155 150.765 90.8277 152.139 90.8277C153.512 90.8277 154.627 89.7155 154.627 88.3395C154.627 82.2558 150.23 77.1997 144.453 76.1272C144.664 75.7963 144.868 75.448 145.06 75.0523C147.458 70.0684 149.302 68.8716 153.886 68.8716C154.791 68.8716 155.806 68.9188 156.953 68.9935C160.054 69.1851 162.127 67.1323 163.963 65.3134C165.707 63.5891 167.352 61.9568 169.922 61.5661L170.741 61.4143L171.134 61.0511C172.047 60.6405 174.956 61.5288 177.464 63.7309C179.783 65.7638 183.1 65.9429 185.73 64.2758C186.101 64.4973 186.511 64.6565 186.974 64.6565C188.295 64.6565 189.348 63.6189 189.432 62.3201C190.627 61.9194 191.933 61.6582 193.274 61.5686L194.439 61.591C194.479 61.591 194.511 61.6084 194.551 61.6084C194.511 61.7975 194.441 61.9742 194.441 62.1732C194.441 63.5468 195.556 64.6615 196.929 64.6615C197.701 64.6615 198.365 64.2882 198.82 63.7359C199.256 64.1539 199.704 64.6192 200.191 65.1392C200.234 65.184 200.276 65.2288 200.318 65.2736C199.778 65.7289 199.418 66.3883 199.418 67.1497C199.418 68.5232 200.532 69.6379 201.906 69.6379C202.834 69.6379 203.613 69.1055 204.041 68.3515C204.929 68.7919 205.917 69.0482 207.042 68.996C208.199 68.9238 209.179 68.894 210.09 68.8964C210.54 69.3543 211.165 69.6379 211.859 69.6379C212.369 69.6379 212.817 69.4463 213.212 69.1826C214.031 69.3792 214.73 69.7101 215.375 70.1654C214.768 70.6183 214.347 71.31 214.347 72.1262C214.347 73.4997 215.462 74.6144 216.835 74.6144C217.435 74.6144 217.962 74.3755 218.39 74.0222C218.572 74.3656 218.749 74.6691 218.935 75.0548C219.122 75.443 219.326 75.7864 219.533 76.1123C219.401 76.4159 219.323 76.7493 219.323 77.1026C219.323 78.4761 220.438 79.5909 221.812 79.5909C222.289 79.5909 222.71 79.4217 223.088 79.1878C223.887 79.5461 224.696 79.7924 225.477 80.0188C224.785 80.4617 224.3 81.1983 224.3 82.0791C224.3 83.4526 225.415 84.5673 226.788 84.5673C228.162 84.5673 229.276 83.4526 229.276 82.0791C229.276 81.8701 229.207 81.681 229.157 81.4869C232.195 83.2212 234.644 86.1722 236.171 89.6583C235.079 89.922 234.253 90.8601 234.253 92.032C234.253 93.4055 235.368 94.5203 236.741 94.5203C237.04 94.5203 237.316 94.4456 237.582 94.3511C237.828 95.7893 237.96 97.2498 237.871 98.7104C237.851 99.0488 237.856 99.427 237.848 99.7878C237.51 99.6162 237.144 99.4992 236.741 99.4992C235.368 99.4992 234.253 100.614 234.253 101.987C234.253 103.361 235.368 104.476 236.741 104.476C237.241 104.476 237.682 104.292 238.072 104.035C238.5 107.81 239.52 111.804 241.096 114.553C240.031 114.837 239.232 115.762 239.232 116.914C239.232 118.288 240.347 119.403 241.72 119.403C242.272 119.403 242.755 119.189 243.168 118.885C243.987 121.289 244.3 123.861 244.114 126.409Z" fill="#FFA616"/>
<path d="M201.906 189.073C203.28 189.073 204.394 187.959 204.394 186.585C204.394 185.211 203.28 184.097 201.906 184.097C200.532 184.097 199.418 185.211 199.418 186.585C199.418 187.959 200.532 189.073 201.906 189.073Z" fill="#FFA616"/>
<path d="M191.953 189.073C193.327 189.073 194.441 187.959 194.441 186.585C194.441 185.211 193.327 184.097 191.953 184.097C190.579 184.097 189.465 185.211 189.465 186.585C189.465 187.959 190.579 189.073 191.953 189.073Z" fill="#FFA616"/>
<path d="M196.929 184.097C198.304 184.097 199.418 182.983 199.418 181.608C199.418 180.234 198.304 179.12 196.929 179.12C195.555 179.12 194.441 180.234 194.441 181.608C194.441 182.983 195.555 184.097 196.929 184.097Z" fill="#FFA616"/>
<path d="M206.882 184.097C208.256 184.097 209.371 182.983 209.371 181.608C209.371 180.234 208.256 179.12 206.882 179.12C205.508 179.12 204.394 180.234 204.394 181.608C204.394 182.983 205.508 184.097 206.882 184.097Z" fill="#FFA616"/>
<path d="M186.977 184.097C188.351 184.097 189.465 182.983 189.465 181.608C189.465 180.234 188.351 179.12 186.977 179.12C185.602 179.12 184.488 180.234 184.488 181.608C184.488 182.983 185.602 184.097 186.977 184.097Z" fill="#FFA616"/>
<path d="M206.882 174.143C208.256 174.143 209.371 173.029 209.371 171.655C209.371 170.281 208.256 169.167 206.882 169.167C205.508 169.167 204.394 170.281 204.394 171.655C204.394 173.029 205.508 174.143 206.882 174.143Z" fill="#FFA616"/>
<path d="M186.977 174.143C188.351 174.143 189.465 173.029 189.465 171.655C189.465 170.281 188.351 169.167 186.977 169.167C185.602 169.167 184.488 170.281 184.488 171.655C184.488 173.029 185.602 174.143 186.977 174.143Z" fill="#FFA616"/>
<path d="M191.953 169.167C193.327 169.167 194.441 168.053 194.441 166.679C194.441 165.305 193.327 164.191 191.953 164.191C190.579 164.191 189.465 165.305 189.465 166.679C189.465 168.053 190.579 169.167 191.953 169.167Z" fill="#FFA616"/>
<path d="M196.929 164.191C198.304 164.191 199.418 163.077 199.418 161.703C199.418 160.328 198.304 159.214 196.929 159.214C195.555 159.214 194.441 160.328 194.441 161.703C194.441 163.077 195.555 164.191 196.929 164.191Z" fill="#FFA616"/>
<path d="M206.882 164.191C208.256 164.191 209.371 163.077 209.371 161.703C209.371 160.328 208.256 159.214 206.882 159.214C205.508 159.214 204.394 160.328 204.394 161.703C204.394 163.077 205.508 164.191 206.882 164.191Z" fill="#FFA616"/>
<path d="M186.977 164.191C188.351 164.191 189.465 163.077 189.465 161.703C189.465 160.328 188.351 159.214 186.977 159.214C185.602 159.214 184.488 160.328 184.488 161.703C184.488 163.077 185.602 164.191 186.977 164.191Z" fill="#FFA616"/>
<path d="M201.906 159.214C203.28 159.214 204.394 158.1 204.394 156.726C204.394 155.352 203.28 154.238 201.906 154.238C200.532 154.238 199.418 155.352 199.418 156.726C199.418 158.1 200.532 159.214 201.906 159.214Z" fill="#FFA616"/>
<path d="M186.977 154.238C188.351 154.238 189.465 153.124 189.465 151.749C189.465 150.375 188.351 149.261 186.977 149.261C185.602 149.261 184.488 150.375 184.488 151.749C184.488 153.124 185.602 154.238 186.977 154.238Z" fill="#FFA616"/>
<path d="M201.906 149.261C203.28 149.261 204.394 148.147 204.394 146.773C204.394 145.399 203.28 144.285 201.906 144.285C200.532 144.285 199.418 145.399 199.418 146.773C199.418 148.147 200.532 149.261 201.906 149.261Z" fill="#FFA616"/>
<path d="M191.953 149.261C193.327 149.261 194.441 148.147 194.441 146.773C194.441 145.399 193.327 144.285 191.953 144.285C190.579 144.285 189.465 145.399 189.465 146.773C189.465 148.147 190.579 149.261 191.953 149.261Z" fill="#FFA616"/>
<path d="M186.977 144.285C188.351 144.285 189.465 143.171 189.465 141.797C189.465 140.423 188.351 139.309 186.977 139.309C185.602 139.309 184.488 140.423 184.488 141.797C184.488 143.171 185.602 144.285 186.977 144.285Z" fill="#FFA616"/>
<path d="M191.953 139.308C193.327 139.308 194.441 138.194 194.441 136.82C194.441 135.446 193.327 134.332 191.953 134.332C190.579 134.332 189.465 135.446 189.465 136.82C189.465 138.194 190.579 139.308 191.953 139.308Z" fill="#FFA616"/>
<path d="M196.929 134.332C198.304 134.332 199.418 133.218 199.418 131.844C199.418 130.469 198.304 129.355 196.929 129.355C195.555 129.355 194.441 130.469 194.441 131.844C194.441 133.218 195.555 134.332 196.929 134.332Z" fill="#FFA616"/>
<path d="M206.882 134.332C208.256 134.332 209.371 133.218 209.371 131.844C209.371 130.469 208.256 129.355 206.882 129.355C205.508 129.355 204.394 130.469 204.394 131.844C204.394 133.218 205.508 134.332 206.882 134.332Z" fill="#FFA616"/>
<path d="M186.977 134.332C188.351 134.332 189.465 133.218 189.465 131.844C189.465 130.469 188.351 129.355 186.977 129.355C185.602 129.355 184.488 130.469 184.488 131.844C184.488 133.218 185.602 134.332 186.977 134.332Z" fill="#FFA616"/>
<path d="M201.906 129.355C203.28 129.355 204.394 128.241 204.394 126.867C204.394 125.493 203.28 124.379 201.906 124.379C200.532 124.379 199.418 125.493 199.418 126.867C199.418 128.241 200.532 129.355 201.906 129.355Z" fill="#FFA616"/>
<path d="M196.929 124.379C198.304 124.379 199.418 123.265 199.418 121.891C199.418 120.516 198.304 119.402 196.929 119.402C195.555 119.402 194.441 120.516 194.441 121.891C194.441 123.265 195.555 124.379 196.929 124.379Z" fill="#FFA616"/>
<path d="M206.882 124.379C208.256 124.379 209.371 123.265 209.371 121.891C209.371 120.516 208.256 119.402 206.882 119.402C205.508 119.402 204.394 120.516 204.394 121.891C204.394 123.265 205.508 124.379 206.882 124.379Z" fill="#FFA616"/>
<path d="M186.977 124.379C188.351 124.379 189.465 123.265 189.465 121.891C189.465 120.516 188.351 119.402 186.977 119.402C185.602 119.402 184.488 120.516 184.488 121.891C184.488 123.265 185.602 124.379 186.977 124.379Z" fill="#FFA616"/>
<path d="M191.953 119.403C193.327 119.403 194.441 118.289 194.441 116.915C194.441 115.54 193.327 114.426 191.953 114.426C190.579 114.426 189.465 115.54 189.465 116.915C189.465 118.289 190.579 119.403 191.953 119.403Z" fill="#FFA616"/>
<path d="M196.929 114.426C198.304 114.426 199.418 113.312 199.418 111.938C199.418 110.564 198.304 109.45 196.929 109.45C195.555 109.45 194.441 110.564 194.441 111.938C194.441 113.312 195.555 114.426 196.929 114.426Z" fill="#FFA616"/>
<path d="M201.906 109.45C203.28 109.45 204.394 108.336 204.394 106.961C204.394 105.587 203.28 104.473 201.906 104.473C200.532 104.473 199.418 105.587 199.418 106.961C199.418 108.336 200.532 109.45 201.906 109.45Z" fill="#FFA616"/>
<path d="M191.953 109.45C193.327 109.45 194.441 108.336 194.441 106.961C194.441 105.587 193.327 104.473 191.953 104.473C190.579 104.473 189.465 105.587 189.465 106.961C189.465 108.336 190.579 109.45 191.953 109.45Z" fill="#FFA616"/>
<path d="M186.977 104.473C188.351 104.473 189.465 103.359 189.465 101.985C189.465 100.611 188.351 99.4966 186.977 99.4966C185.602 99.4966 184.488 100.611 184.488 101.985C184.488 103.359 185.602 104.473 186.977 104.473Z" fill="#FFA616"/>
<path d="M201.906 99.4965C203.28 99.4965 204.394 98.3825 204.394 97.0083C204.394 95.634 203.28 94.52 201.906 94.52C200.532 94.52 199.418 95.634 199.418 97.0083C199.418 98.3825 200.532 99.4965 201.906 99.4965Z" fill="#FFA616"/>
<path d="M191.953 99.4965C193.327 99.4965 194.441 98.3825 194.441 97.0083C194.441 95.634 193.327 94.52 191.953 94.52C190.579 94.52 189.465 95.634 189.465 97.0083C189.465 98.3825 190.579 99.4965 191.953 99.4965Z" fill="#FFA616"/>
<path d="M196.929 94.5204C198.304 94.5204 199.418 93.4064 199.418 92.0322C199.418 90.658 198.304 89.5439 196.929 89.5439C195.555 89.5439 194.441 90.658 194.441 92.0322C194.441 93.4064 195.555 94.5204 196.929 94.5204Z" fill="#FFA616"/>
<path d="M206.882 94.5204C208.256 94.5204 209.371 93.4064 209.371 92.0322C209.371 90.658 208.256 89.5439 206.882 89.5439C205.508 89.5439 204.394 90.658 204.394 92.0322C204.394 93.4064 205.508 94.5204 206.882 94.5204Z" fill="#FFA616"/>
<path d="M201.906 89.5438C203.28 89.5438 204.394 88.4298 204.394 87.0556C204.394 85.6814 203.28 84.5674 201.906 84.5674C200.532 84.5674 199.418 85.6814 199.418 87.0556C199.418 88.4298 200.532 89.5438 201.906 89.5438Z" fill="#FFA616"/>
<path d="M191.953 89.5438C193.327 89.5438 194.441 88.4298 194.441 87.0556C194.441 85.6814 193.327 84.5674 191.953 84.5674C190.579 84.5674 189.465 85.6814 189.465 87.0556C189.465 88.4298 190.579 89.5438 191.953 89.5438Z" fill="#FFA616"/>
<path d="M186.977 84.5673C188.351 84.5673 189.465 83.4533 189.465 82.0791C189.465 80.7048 188.351 79.5908 186.977 79.5908C185.602 79.5908 184.488 80.7048 184.488 82.0791C184.488 83.4533 185.602 84.5673 186.977 84.5673Z" fill="#FFA616"/>
<path d="M201.906 79.5907C203.28 79.5907 204.394 78.4767 204.394 77.1025C204.394 75.7283 203.28 74.6143 201.906 74.6143C200.532 74.6143 199.418 75.7283 199.418 77.1025C199.418 78.4767 200.532 79.5907 201.906 79.5907Z" fill="#FFA616"/>
<path d="M206.882 74.6146C208.256 74.6146 209.371 73.5006 209.371 72.1264C209.371 70.7522 208.256 69.6382 206.882 69.6382C205.508 69.6382 204.394 70.7522 204.394 72.1264C204.394 73.5006 205.508 74.6146 206.882 74.6146Z" fill="#FFA616"/>
<path d="M186.977 74.6146C188.351 74.6146 189.465 73.5006 189.465 72.1264C189.465 70.7522 188.351 69.6382 186.977 69.6382C185.602 69.6382 184.488 70.7522 184.488 72.1264C184.488 73.5006 185.602 74.6146 186.977 74.6146Z" fill="#FFA616"/>
<path d="M191.953 69.6381C193.327 69.6381 194.441 68.5241 194.441 67.1499C194.441 65.7756 193.327 64.6616 191.953 64.6616C190.579 64.6616 189.465 65.7756 189.465 67.1499C189.465 68.5241 190.579 69.6381 191.953 69.6381Z" fill="#FFA616"/>
<path d="M211.859 179.12C213.233 179.12 214.347 178.006 214.347 176.632C214.347 175.258 213.233 174.144 211.859 174.144C210.485 174.144 209.371 175.258 209.371 176.632C209.371 178.006 210.485 179.12 211.859 179.12Z" fill="#FFA616"/>
<path d="M221.812 169.167C223.186 169.167 224.3 168.053 224.3 166.679C224.3 165.305 223.186 164.191 221.812 164.191C220.438 164.191 219.323 165.305 219.323 166.679C219.323 168.053 220.438 169.167 221.812 169.167Z" fill="#FFA616"/>
<path d="M216.835 164.191C218.209 164.191 219.323 163.077 219.323 161.703C219.323 160.328 218.209 159.214 216.835 159.214C215.461 159.214 214.347 160.328 214.347 161.703C214.347 163.077 215.461 164.191 216.835 164.191Z" fill="#FFA616"/>
<path d="M221.812 159.214C223.186 159.214 224.3 158.1 224.3 156.726C224.3 155.352 223.186 154.238 221.812 154.238C220.438 154.238 219.323 155.352 219.323 156.726C219.323 158.1 220.438 159.214 221.812 159.214Z" fill="#FFA616"/>
<path d="M226.788 154.238C228.162 154.238 229.277 153.124 229.277 151.749C229.277 150.375 228.162 149.261 226.788 149.261C225.414 149.261 224.3 150.375 224.3 151.749C224.3 153.124 225.414 154.238 226.788 154.238Z" fill="#FFA616"/>
<path d="M221.812 149.261C223.186 149.261 224.3 148.147 224.3 146.773C224.3 145.399 223.186 144.285 221.812 144.285C220.438 144.285 219.323 145.399 219.323 146.773C219.323 148.147 220.438 149.261 221.812 149.261Z" fill="#FFA616"/>
<path d="M211.859 149.261C213.233 149.261 214.347 148.147 214.347 146.773C214.347 145.399 213.233 144.285 211.859 144.285C210.485 144.285 209.371 145.399 209.371 146.773C209.371 148.147 210.485 149.261 211.859 149.261Z" fill="#FFA616"/>
<path d="M221.812 139.308C223.186 139.308 224.3 138.194 224.3 136.82C224.3 135.446 223.186 134.332 221.812 134.332C220.438 134.332 219.323 135.446 219.323 136.82C219.323 138.194 220.438 139.308 221.812 139.308Z" fill="#FFA616"/>
<path d="M231.765 139.308C233.139 139.308 234.253 138.194 234.253 136.82C234.253 135.446 233.139 134.332 231.765 134.332C230.39 134.332 229.276 135.446 229.276 136.82C229.276 138.194 230.39 139.308 231.765 139.308Z" fill="#FFA616"/>
<path d="M211.859 139.308C213.233 139.308 214.347 138.194 214.347 136.82C214.347 135.446 213.233 134.332 211.859 134.332C210.485 134.332 209.371 135.446 209.371 136.82C209.371 138.194 210.485 139.308 211.859 139.308Z" fill="#FFA616"/>
<path d="M221.812 129.355C223.186 129.355 224.3 128.241 224.3 126.867C224.3 125.493 223.186 124.379 221.812 124.379C220.438 124.379 219.323 125.493 219.323 126.867C219.323 128.241 220.438 129.355 221.812 129.355Z" fill="#FFA616"/>
<path d="M231.765 129.355C233.139 129.355 234.253 128.241 234.253 126.867C234.253 125.493 233.139 124.379 231.765 124.379C230.39 124.379 229.276 125.493 229.276 126.867C229.276 128.241 230.39 129.355 231.765 129.355Z" fill="#FFA616"/>
<path d="M216.835 124.379C218.209 124.379 219.323 123.265 219.323 121.891C219.323 120.516 218.209 119.402 216.835 119.402C215.461 119.402 214.347 120.516 214.347 121.891C214.347 123.265 215.461 124.379 216.835 124.379Z" fill="#FFA616"/>
<path d="M221.812 119.403C223.186 119.403 224.3 118.289 224.3 116.915C224.3 115.54 223.186 114.426 221.812 114.426C220.438 114.426 219.323 115.54 219.323 116.915C219.323 118.289 220.438 119.403 221.812 119.403Z" fill="#FFA616"/>
<path d="M226.788 114.426C228.162 114.426 229.277 113.312 229.277 111.938C229.277 110.564 228.162 109.45 226.788 109.45C225.414 109.45 224.3 110.564 224.3 111.938C224.3 113.312 225.414 114.426 226.788 114.426Z" fill="#FFA616"/>
<path d="M216.835 114.426C218.209 114.426 219.323 113.312 219.323 111.938C219.323 110.564 218.209 109.45 216.835 109.45C215.461 109.45 214.347 110.564 214.347 111.938C214.347 113.312 215.461 114.426 216.835 114.426Z" fill="#FFA616"/>
<path d="M221.812 109.45C223.186 109.45 224.3 108.336 224.3 106.961C224.3 105.587 223.186 104.473 221.812 104.473C220.438 104.473 219.323 105.587 219.323 106.961C219.323 108.336 220.438 109.45 221.812 109.45Z" fill="#FFA616"/>
<path d="M211.859 109.45C213.233 109.45 214.347 108.336 214.347 106.961C214.347 105.587 213.233 104.473 211.859 104.473C210.485 104.473 209.371 105.587 209.371 106.961C209.371 108.336 210.485 109.45 211.859 109.45Z" fill="#FFA616"/>
<path d="M226.788 104.473C228.162 104.473 229.277 103.359 229.277 101.985C229.277 100.611 228.162 99.4966 226.788 99.4966C225.414 99.4966 224.3 100.611 224.3 101.985C224.3 103.359 225.414 104.473 226.788 104.473Z" fill="#FFA616"/>
<path d="M231.765 99.4965C233.139 99.4965 234.253 98.3825 234.253 97.0083C234.253 95.634 233.139 94.52 231.765 94.52C230.39 94.52 229.276 95.634 229.276 97.0083C229.276 98.3825 230.39 99.4965 231.765 99.4965Z" fill="#FFA616"/>
<path d="M226.788 94.5204C228.162 94.5204 229.277 93.4064 229.277 92.0322C229.277 90.658 228.162 89.5439 226.788 89.5439C225.414 89.5439 224.3 90.658 224.3 92.0322C224.3 93.4064 225.414 94.5204 226.788 94.5204Z" fill="#FFA616"/>
<path d="M216.835 94.5204C218.209 94.5204 219.323 93.4064 219.323 92.0322C219.323 90.658 218.209 89.5439 216.835 89.5439C215.461 89.5439 214.347 90.658 214.347 92.0322C214.347 93.4064 215.461 94.5204 216.835 94.5204Z" fill="#FFA616"/>
<path d="M231.765 89.5438C233.139 89.5438 234.253 88.4298 234.253 87.0556C234.253 85.6814 233.139 84.5674 231.765 84.5674C230.39 84.5674 229.276 85.6814 229.276 87.0556C229.276 88.4298 230.39 89.5438 231.765 89.5438Z" fill="#FFA616"/>
<path d="M211.859 89.5438C213.233 89.5438 214.347 88.4298 214.347 87.0556C214.347 85.6814 213.233 84.5674 211.859 84.5674C210.485 84.5674 209.371 85.6814 209.371 87.0556C209.371 88.4298 210.485 89.5438 211.859 89.5438Z" fill="#FFA616"/>
<path d="M216.835 84.5673C218.209 84.5673 219.323 83.4533 219.323 82.0791C219.323 80.7048 218.209 79.5908 216.835 79.5908C215.461 79.5908 214.347 80.7048 214.347 82.0791C214.347 83.4533 215.461 84.5673 216.835 84.5673Z" fill="#FFA616"/>
<path d="M236.741 124.379C238.115 124.379 239.229 123.265 239.229 121.891C239.229 120.516 238.115 119.402 236.741 119.402C235.367 119.402 234.253 120.516 234.253 121.891C234.253 123.265 235.367 124.379 236.741 124.379Z" fill="#FFA616"/>
<path d="M236.741 114.426C238.115 114.426 239.229 113.312 239.229 111.938C239.229 110.564 238.115 109.45 236.741 109.45C235.367 109.45 234.253 110.564 234.253 111.938C234.253 113.312 235.367 114.426 236.741 114.426Z" fill="#FFA616"/>
<path d="M113.68 246.62L115.75 241.73C116.63 242.09 117.53 242.37 118.45 242.57C119.39 242.77 120.29 242.9 121.15 242.96C122.01 243 122.77 242.96 123.43 242.84C124.11 242.72 124.65 242.52 125.05 242.24C125.45 241.96 125.65 241.59 125.65 241.13C125.65 240.65 125.45 240.32 125.05 240.14C124.65 239.96 124.16 239.87 123.58 239.87H117.91V234.77H122.98C123.58 234.77 124.03 234.66 124.33 234.44C124.65 234.2 124.81 233.89 124.81 233.51C124.81 233.09 124.63 232.76 124.27 232.52C123.93 232.28 123.46 232.12 122.86 232.04C122.28 231.94 121.62 231.93 120.88 232.01C120.14 232.07 119.37 232.22 118.57 232.46C117.79 232.68 117.03 232.97 116.29 233.33L114.22 228.17C115.7 227.49 117.25 227.03 118.87 226.79C120.51 226.53 122.1 226.48 123.64 226.64C125.2 226.78 126.6 227.11 127.84 227.63C129.1 228.15 130.1 228.84 130.84 229.7C131.58 230.54 131.95 231.54 131.95 232.7C131.95 233.7 131.68 234.6 131.14 235.4C130.6 236.18 129.86 236.79 128.92 237.23C128 237.67 126.95 237.89 125.77 237.89L125.92 236.48C127.3 236.48 128.5 236.73 129.52 237.23C130.56 237.71 131.36 238.37 131.92 239.21C132.5 240.05 132.79 241.01 132.79 242.09C132.79 243.09 132.52 243.99 131.98 244.79C131.44 245.57 130.69 246.24 129.73 246.8C128.79 247.34 127.69 247.75 126.43 248.03C125.19 248.31 123.85 248.45 122.41 248.45C120.99 248.47 119.53 248.32 118.03 248C116.55 247.7 115.1 247.24 113.68 246.62ZM144.606 248V245.09L144.126 244.31V238.79C144.126 237.99 143.876 237.38 143.376 236.96C142.896 236.54 142.106 236.33 141.006 236.33C140.266 236.33 139.516 236.45 138.756 236.69C137.996 236.91 137.346 237.22 136.806 237.62L134.646 233.15C135.606 232.55 136.756 232.09 138.096 231.77C139.436 231.45 140.746 231.29 142.026 231.29C144.846 231.29 147.026 231.92 148.566 233.18C150.126 234.44 150.906 236.44 150.906 239.18V248H144.606ZM139.956 248.3C138.616 248.3 137.496 248.07 136.596 247.61C135.696 247.15 135.016 246.54 134.556 245.78C134.096 245 133.866 244.14 133.866 243.2C133.866 242.14 134.136 241.24 134.676 240.5C135.216 239.76 136.036 239.2 137.136 238.82C138.256 238.44 139.666 238.25 141.366 238.25H144.786V241.52H142.446C141.726 241.52 141.196 241.64 140.856 241.88C140.536 242.1 140.376 242.44 140.376 242.9C140.376 243.28 140.516 243.6 140.796 243.86C141.096 244.1 141.496 244.22 141.996 244.22C142.456 244.22 142.876 244.1 143.256 243.86C143.656 243.6 143.946 243.2 144.126 242.66L144.996 244.67C144.736 245.89 144.186 246.8 143.346 247.4C142.506 248 141.376 248.3 139.956 248.3ZM164.619 248.3C163.199 248.3 162.019 248 161.079 247.4C160.159 246.78 159.479 245.85 159.039 244.61C158.599 243.35 158.379 241.75 158.379 239.81C158.379 237.83 158.579 236.22 158.979 234.98C159.399 233.72 160.069 232.79 160.989 232.19C161.909 231.59 163.119 231.29 164.619 231.29C166.059 231.29 167.379 231.64 168.579 232.34C169.779 233.02 170.739 234 171.459 235.28C172.179 236.54 172.539 238.05 172.539 239.81C172.539 241.57 172.179 243.09 171.459 244.37C170.739 245.63 169.779 246.6 168.579 247.28C167.379 247.96 166.059 248.3 164.619 248.3ZM153.669 253.82V231.59H160.119V233.81L160.149 239.81L160.449 245.81V253.82H153.669ZM162.999 243.02C163.499 243.02 163.949 242.9 164.349 242.66C164.749 242.42 165.069 242.06 165.309 241.58C165.549 241.1 165.669 240.51 165.669 239.81C165.669 239.09 165.549 238.49 165.309 238.01C165.069 237.53 164.749 237.17 164.349 236.93C163.949 236.69 163.499 236.57 162.999 236.57C162.499 236.57 162.049 236.69 161.649 236.93C161.249 237.17 160.929 237.53 160.689 238.01C160.449 238.49 160.329 239.09 160.329 239.81C160.329 240.51 160.449 241.1 160.689 241.58C160.929 242.06 161.249 242.42 161.649 242.66C162.049 242.9 162.499 243.02 162.999 243.02ZM184.554 248V242.84L185.394 243.83H181.644C179.104 243.83 177.094 243.32 175.614 242.3C174.134 241.26 173.394 239.8 173.394 237.92C173.394 235.92 174.154 234.37 175.674 233.27C177.214 232.15 179.294 231.59 181.914 231.59H190.554V248H184.554ZM173.064 248L177.354 241.79H184.194L180.234 248H173.064ZM184.554 240.83V235.22L185.394 236.84H182.064C181.504 236.84 181.074 236.95 180.774 237.17C180.474 237.37 180.324 237.7 180.324 238.16C180.324 239.12 180.904 239.6 182.064 239.6H185.394L184.554 240.83ZM205.207 245.09V236.87H201.817L201.787 237.89C201.767 238.59 201.727 239.24 201.667 239.84C201.627 240.44 201.537 240.98 201.397 241.46C201.257 241.92 201.047 242.33 200.767 242.69C200.507 243.03 200.137 243.31 199.657 243.53L193.027 242.69C193.547 242.69 193.977 242.56 194.317 242.3C194.657 242.02 194.917 241.64 195.097 241.16C195.297 240.66 195.437 240.09 195.517 239.45C195.617 238.81 195.677 238.12 195.697 237.38L195.907 231.59H211.957V245.09H205.207ZM192.547 251.24V242.69H214.147V251.24H207.877V248H198.817V251.24H192.547ZM227.47 248L222.97 240.47L228.43 237.29L235.45 248H227.47ZM216.13 248V231.59H222.91V248H216.13ZM220.93 242.54V237.35H227.05V242.54H220.93ZM229.12 240.53L222.76 239.93L227.98 231.59H235.12L229.12 240.53ZM246.237 248V245.09L245.757 244.31V238.79C245.757 237.99 245.507 237.38 245.007 236.96C244.527 236.54 243.737 236.33 242.637 236.33C241.897 236.33 241.147 236.45 240.387 236.69C239.627 236.91 238.977 237.22 238.437 237.62L236.277 233.15C237.237 232.55 238.387 232.09 239.727 231.77C241.067 231.45 242.377 231.29 243.657 231.29C246.477 231.29 248.657 231.92 250.197 233.18C251.757 234.44 252.537 236.44 252.537 239.18V248H246.237ZM241.587 248.3C240.247 248.3 239.127 248.07 238.227 247.61C237.327 247.15 236.647 246.54 236.187 245.78C235.727 245 235.497 244.14 235.497 243.2C235.497 242.14 235.767 241.24 236.307 240.5C236.847 239.76 237.667 239.2 238.767 238.82C239.887 238.44 241.297 238.25 242.997 238.25H246.417V241.52H244.077C243.357 241.52 242.827 241.64 242.487 241.88C242.167 242.1 242.007 242.44 242.007 242.9C242.007 243.28 242.147 243.6 242.427 243.86C242.727 244.1 243.127 244.22 243.627 244.22C244.087 244.22 244.507 244.1 244.887 243.86C245.287 243.6 245.577 243.2 245.757 242.66L246.627 244.67C246.367 245.89 245.817 246.8 244.977 247.4C244.137 248 243.007 248.3 241.587 248.3Z" fill="#FFBA4B"/>
<path d="M129.633 306V273.864L134.885 278.856H123.393V269.6H141.905V306H129.633Z" fill="#FFA616"/>
<path d="M172.401 301V290.5H173.821V298.84L180.841 290.5H182.101V301H180.681V292.64L173.681 301H172.401ZM188.776 301.12C188.016 301.12 187.262 301.013 186.516 300.8C185.769 300.587 185.109 300.26 184.536 299.82L184.996 298.76C185.502 299.133 186.089 299.42 186.756 299.62C187.422 299.807 188.082 299.9 188.736 299.9C189.389 299.887 189.956 299.793 190.436 299.62C190.916 299.447 191.289 299.207 191.556 298.9C191.822 298.593 191.956 298.247 191.956 297.86C191.956 297.3 191.702 296.867 191.196 296.56C190.689 296.24 189.996 296.08 189.116 296.08H187.316V295.04H189.016C189.536 295.04 189.996 294.973 190.396 294.84C190.796 294.707 191.102 294.513 191.316 294.26C191.542 294.007 191.656 293.707 191.656 293.36C191.656 292.987 191.522 292.667 191.256 292.4C191.002 292.133 190.649 291.933 190.196 291.8C189.742 291.667 189.229 291.6 188.656 291.6C188.136 291.613 187.596 291.693 187.036 291.84C186.476 291.973 185.922 292.18 185.376 292.46L184.976 291.36C185.589 291.04 186.196 290.8 186.796 290.64C187.409 290.467 188.022 290.38 188.636 290.38C189.476 290.353 190.229 290.453 190.896 290.68C191.576 290.907 192.116 291.233 192.516 291.66C192.916 292.073 193.116 292.573 193.116 293.16C193.116 293.68 192.956 294.133 192.636 294.52C192.316 294.907 191.889 295.207 191.356 295.42C190.822 295.633 190.216 295.74 189.536 295.74L189.596 295.36C190.796 295.36 191.729 295.593 192.396 296.06C193.076 296.527 193.416 297.16 193.416 297.96C193.416 298.587 193.209 299.14 192.796 299.62C192.382 300.087 191.822 300.453 191.116 300.72C190.422 300.987 189.642 301.12 188.776 301.12Z" fill="#C3B59F"/>
<path d="M231.069 306.832C228.573 306.832 226.043 306.555 223.477 306C220.912 305.445 218.659 304.631 216.717 303.556L220.877 294.508C222.437 295.409 224.067 296.085 225.765 296.536C227.499 296.952 229.128 297.16 230.653 297.16C232.04 297.16 233.167 296.935 234.033 296.484C234.935 295.999 235.385 295.288 235.385 294.352C235.385 293.555 235.056 292.948 234.397 292.532C233.739 292.081 232.629 291.856 231.069 291.856H226.233V284.316L235.645 274.748L236.737 278.856H218.589V269.6H245.733V277.14L236.321 286.708L230.445 283.38H233.669C238.245 283.38 241.729 284.403 244.121 286.448C246.513 288.493 247.709 291.128 247.709 294.352C247.709 296.432 247.12 298.425 245.941 300.332C244.797 302.239 242.995 303.799 240.533 305.012C238.107 306.225 234.952 306.832 231.069 306.832Z" fill="#FFA616" fill-opacity="0.3"/>
</svg>
