<svg width="512" height="126" viewBox="0 0 512 126" fill="none" xmlns="http://www.w3.org/2000/svg">
<path d="M101.104 123.178C101.356 123.066 101.47 122.771 101.357 122.518L99.5289 118.406C99.4167 118.154 99.1212 118.041 98.8689 118.153C98.6166 118.265 98.503 118.561 98.6152 118.813L100.241 122.468L96.5857 124.093C96.3334 124.205 96.2198 124.501 96.332 124.753C96.4442 125.005 96.7397 125.119 96.992 125.007L101.104 123.178ZM376.901 122.721L377.037 123.203C410.423 113.762 436.795 104.816 457.007 96.3815C477.211 87.9499 491.287 80.0175 500.06 72.592C508.821 65.1763 512.397 58.1715 511.313 51.614C510.235 45.087 504.572 39.2407 495.461 34.0445C477.215 23.6378 444.615 15.5409 404.604 9.85783C364.571 4.17162 317.049 0.89325 268.908 0.158674C220.767 -0.575906 171.997 1.23319 129.465 5.72499C86.9468 10.2154 50.6186 17.3911 27.3899 27.4107C15.7847 32.4165 7.37149 38.1643 3.12451 44.7111C0.993986 47.9954 -0.089907 51.4841 0.00567388 55.1705C0.101163 58.8532 1.37265 62.6956 3.89145 66.694C8.92007 74.6766 18.9615 83.3463 34.7949 92.7359C50.6395 102.132 72.3318 112.276 100.721 123.188L100.901 122.721L101.08 122.255C72.7193 111.354 51.0835 101.233 35.305 91.8757C19.5153 82.5121 9.63861 73.9411 4.73755 66.161C2.29147 62.278 1.09518 58.6086 1.00534 55.1446C0.915617 51.6844 1.92889 48.3917 3.96344 45.2554C8.04654 38.9611 16.2349 33.3114 27.7859 28.3289C50.8698 18.3718 87.0729 11.2076 129.57 6.71946C172.054 2.23265 220.784 0.424466 268.893 1.15856C317.002 1.89265 364.481 5.1689 404.463 10.8479C444.468 16.53 476.899 24.6089 494.966 34.9132C504.012 40.0725 509.325 45.7154 510.327 51.7771C511.323 57.8083 508.082 64.4915 499.414 71.8288C490.757 79.1563 476.79 87.0418 456.621 95.4587C436.46 103.873 410.128 112.806 376.765 122.24L376.901 122.721Z" fill="black"/>
</svg>
