<svg width="374" height="372" viewBox="0 0 374 372" fill="none" xmlns="http://www.w3.org/2000/svg">
<path d="M29.8488 125.341C30.1065 125.44 30.3958 125.311 30.4949 125.053L32.1094 120.853C32.2084 120.595 32.0798 120.306 31.822 120.207C31.5643 120.108 31.275 120.236 31.1759 120.494L29.7408 124.228L26.0071 122.793C25.7494 122.694 25.4601 122.822 25.361 123.08C25.262 123.338 25.3906 123.627 25.6484 123.726L29.8488 125.341ZM225.19 320.036L224.946 320.472C255.229 337.404 280.203 349.726 300.458 358.054C320.707 366.378 336.269 370.723 347.723 371.675C359.162 372.627 366.644 370.202 370.514 364.799C374.367 359.421 374.496 351.283 371.729 341.166C366.185 320.906 348.859 292.129 324.585 259.818C300.298 227.489 269.014 191.568 235.493 157.008C201.971 122.448 166.206 89.2413 132.955 62.3432C99.7151 35.4533 68.9532 14.8394 45.4431 5.49914C33.6973 0.832666 23.684 -1.05208 16.0516 0.574185C12.2228 1.38998 8.98946 3.09048 6.45037 5.76474C3.91386 8.43629 2.09594 12.0524 1.0497 16.6607C-1.03908 25.861 -0.0691518 39.0918 4.48734 56.9271C9.04707 74.775 17.2127 97.287 29.5713 125.077L30.0282 124.874L30.485 124.671C18.139 96.9087 9.99694 74.4531 5.45624 56.6796C0.912313 38.8935 -0.0109042 25.849 2.02488 16.8821C3.04091 12.4068 4.78969 8.96622 7.17557 6.45328C9.55889 3.94307 12.6037 2.33129 16.26 1.55222C23.5979 -0.0112855 33.3829 1.78379 45.0739 6.42847C68.4373 15.7105 99.1027 36.2441 132.326 63.1206C165.54 89.9889 201.276 123.167 234.775 157.705C268.274 192.242 299.53 228.131 323.786 260.419C348.056 292.724 365.275 321.369 370.764 341.43C373.512 351.475 373.279 359.222 369.701 364.217C366.141 369.186 359.124 371.62 347.806 370.679C336.503 369.739 321.052 365.439 300.838 357.129C280.632 348.822 255.697 336.52 225.434 319.599L225.19 320.036Z" fill="black"/>
</svg>
