<svg width="372" height="374" viewBox="0 0 372 374" fill="none" xmlns="http://www.w3.org/2000/svg">
<path d="M246.537 29.8488C246.438 30.1065 246.566 30.3958 246.824 30.4949L251.025 32.1094C251.282 32.2084 251.572 32.0798 251.671 31.822C251.77 31.5643 251.641 31.275 251.383 31.1759L247.65 29.7408L249.085 26.0071C249.184 25.7494 249.055 25.4601 248.797 25.361C248.54 25.262 248.25 25.3906 248.151 25.6484L246.537 29.8488ZM51.8418 225.19L51.4054 224.946C34.4733 255.229 22.151 280.203 13.8237 300.458C5.4992 320.707 1.1547 336.269 0.202067 347.723C-0.749316 359.162 1.6755 366.644 7.07848 370.514C12.4564 374.367 20.5948 374.496 30.7111 371.729C50.9718 366.185 79.7488 348.859 112.059 324.585C144.388 300.298 180.309 269.014 214.869 235.493C249.429 201.971 282.636 166.206 309.534 132.955C336.424 99.7151 357.038 68.9532 366.378 45.4431C371.045 33.6973 372.93 23.684 371.303 16.0516C370.487 12.2228 368.787 8.98946 366.113 6.45037C363.441 3.91386 359.825 2.09594 355.217 1.0497C346.016 -1.03908 332.786 -0.0691518 314.95 4.48734C297.102 9.04707 274.59 17.2127 246.8 29.5713L247.004 30.0282L247.207 30.485C274.969 18.139 297.424 9.99694 315.198 5.45624C332.984 0.912313 346.028 -0.0109042 354.995 2.02488C359.471 3.04091 362.911 4.78969 365.424 7.17557C367.934 9.55889 369.546 12.6037 370.325 16.26C371.889 23.5979 370.094 33.3829 365.449 45.0739C356.167 68.4373 335.633 99.1027 308.757 132.326C281.889 165.54 248.71 201.276 214.173 234.775C179.635 268.274 143.746 299.53 111.459 323.786C79.1533 348.056 50.5083 365.275 30.4472 370.764C20.4026 373.512 12.6553 373.279 7.66086 369.701C2.69147 366.141 0.257302 359.124 1.19863 347.806C2.1387 336.503 6.43862 321.052 14.7485 300.838C23.0556 280.632 35.3577 255.697 52.2783 225.434L51.8418 225.19Z" fill="black"/>
</svg>
