<svg width="126" height="512" viewBox="0 0 126 512" fill="none" xmlns="http://www.w3.org/2000/svg">
<path d="M123.178 410.398C123.066 410.145 122.771 410.032 122.518 410.144L118.407 411.973C118.154 412.085 118.041 412.38 118.153 412.633C118.265 412.885 118.561 412.998 118.813 412.886L122.468 411.261L124.093 414.916C124.205 415.168 124.501 415.282 124.753 415.169C125.005 415.057 125.119 414.762 125.007 414.509L123.178 410.398ZM122.721 134.601L123.203 134.465C113.762 101.078 104.816 74.706 96.3815 54.4948C87.9499 34.2907 80.0175 20.2142 72.592 11.4415C65.1763 2.68032 58.1715 -0.895317 51.614 0.188206C45.087 1.2667 39.2407 6.92985 34.0445 16.0403C23.6378 34.2865 15.5409 66.8865 9.85783 106.897C4.17163 146.931 0.893258 194.452 0.158685 242.593C-0.575894 290.734 1.2332 339.505 5.725 382.036C10.2154 424.555 17.3912 460.883 27.4107 484.112C32.4166 495.717 38.1643 504.13 44.7112 508.377C47.9954 510.507 51.4842 511.591 55.1706 511.496C58.8532 511.4 62.6956 510.129 66.694 507.61C74.6766 502.581 83.3463 492.54 92.7359 476.707C102.132 460.862 112.276 439.17 123.188 410.78L122.721 410.601L122.255 410.421C111.354 438.782 101.233 460.418 91.8757 476.197C82.5121 491.986 73.9411 501.863 66.161 506.764C62.2781 509.21 58.6086 510.406 55.1446 510.496C51.6844 510.586 48.3917 509.573 45.2554 507.538C38.9612 503.455 33.3114 495.267 28.3289 483.716C18.3719 460.632 11.2077 424.429 6.71947 381.931C2.23267 339.447 0.424479 290.717 1.15857 242.608C1.89266 194.499 5.16891 147.021 10.8479 107.038C16.53 67.0334 24.6089 34.6021 34.9132 16.5357C40.0725 7.48986 45.7154 2.17643 51.7771 1.17483C57.8083 0.17826 64.4915 3.41903 71.8288 12.0876C79.1563 20.7446 87.0418 34.7111 95.4587 54.88C103.873 75.0419 112.806 101.373 122.24 134.737L122.721 134.601Z" fill="black"/>
</svg>
