<svg width="512" height="512" viewBox="0 0 512 512" fill="none" xmlns="http://www.w3.org/2000/svg">
<path d="M316.957 410.398C316.844 410.145 316.549 410.032 316.297 410.144L312.185 411.973C311.933 412.085 311.819 412.38 311.931 412.633C312.043 412.885 312.339 412.998 312.591 412.886L316.246 411.261L317.871 414.916C317.984 415.168 318.279 415.282 318.531 415.169C318.784 415.057 318.897 414.762 318.785 414.509L316.957 410.398ZM316.5 134.601L316.981 134.465C307.54 101.078 298.594 74.706 290.16 54.4948C281.728 34.2907 273.796 20.2142 266.37 11.4415C258.955 2.68032 251.95 -0.895317 245.392 0.188206C238.865 1.2667 233.019 6.92985 227.823 16.0403C217.416 34.2865 209.319 66.8865 203.636 106.897C197.95 146.931 194.672 194.452 193.937 242.593C193.202 290.734 195.012 339.505 199.503 382.036C203.994 424.555 211.169 460.883 221.189 484.112C226.195 495.717 231.943 504.13 238.489 508.377C241.774 510.507 245.262 511.591 248.949 511.496C252.632 511.4 256.474 510.129 260.472 507.61C268.455 502.581 277.125 492.54 286.514 476.707C295.91 460.862 306.055 439.17 316.966 410.78L316.5 410.601L316.033 410.421C305.132 438.782 295.011 460.418 285.654 476.197C276.29 491.986 267.719 501.863 259.939 506.764C256.056 509.21 252.387 510.406 248.923 510.496C245.463 510.586 242.17 509.573 239.034 507.538C232.739 503.455 227.09 495.267 222.107 483.716C212.15 460.632 204.986 424.429 200.498 381.931C196.011 339.447 194.203 290.717 194.937 242.608C195.671 194.499 198.947 147.021 204.626 107.038C210.308 67.0334 218.387 34.6021 228.691 16.5357C233.851 7.48986 239.494 2.17643 245.555 1.17483C251.587 0.17826 258.27 3.41903 265.607 12.0876C272.935 20.7446 280.82 34.7111 289.237 54.88C297.651 75.0419 306.584 101.373 316.019 134.737L316.5 134.601Z" fill="black"/>
<path d="M101.104 317.318C101.356 317.206 101.47 316.911 101.357 316.658L99.5289 312.547C99.4167 312.294 99.1212 312.181 98.8689 312.293C98.6166 312.405 98.503 312.701 98.6152 312.953L100.241 316.608L96.5857 318.233C96.3334 318.345 96.2198 318.641 96.332 318.893C96.4442 319.146 96.7397 319.259 96.992 319.147L101.104 317.318ZM376.901 316.862L377.037 317.343C410.423 307.902 436.795 298.956 457.007 290.522C477.211 282.09 491.287 274.158 500.06 266.732C508.821 259.316 512.397 252.312 511.313 245.754C510.235 239.227 504.572 233.381 495.461 228.185C477.215 217.778 444.615 209.681 404.604 203.998C364.571 198.312 317.049 195.033 268.908 194.299C220.767 193.564 171.997 195.373 129.465 199.865C86.9468 204.356 50.6186 211.531 27.3899 221.551C15.7847 226.557 7.37149 232.304 3.12451 238.851C0.993986 242.136 -0.089907 245.624 0.00567388 249.311C0.101163 252.993 1.37265 256.836 3.89145 260.834C8.92007 268.817 18.9615 277.486 34.7949 286.876C50.6395 296.272 72.3318 306.417 100.721 317.328L100.901 316.862L101.08 316.395C72.7193 305.494 51.0835 295.373 35.305 286.016C19.5153 276.652 9.63861 268.081 4.73755 260.301C2.29147 256.418 1.09518 252.749 1.00534 249.285C0.915617 245.824 1.92889 242.532 3.96344 239.396C8.04654 233.101 16.2349 227.452 27.7859 222.469C50.8698 212.512 87.0729 205.348 129.57 200.86C172.054 196.373 220.784 194.565 268.893 195.299C317.002 196.033 364.481 199.309 404.463 204.988C444.468 210.67 476.899 218.749 494.966 229.053C504.012 234.213 509.325 239.856 510.327 245.917C511.323 251.948 508.082 258.632 499.414 265.969C490.757 273.296 476.79 281.182 456.621 289.599C436.46 298.013 410.128 306.946 376.765 316.38L376.901 316.862Z" fill="black"/>
<path d="M321.567 97.9162C321.468 98.1739 321.597 98.4632 321.854 98.5623L326.055 100.177C326.313 100.276 326.602 100.147 326.701 99.8894C326.8 99.6317 326.671 99.3424 326.414 99.2433L322.68 97.8082L324.115 94.0745C324.214 93.8168 324.085 93.5275 323.828 93.4284C323.57 93.3294 323.281 93.458 323.182 93.7158L321.567 97.9162ZM126.872 293.257L126.436 293.013C109.504 323.297 97.1813 348.27 88.8539 368.526C80.5295 388.774 76.185 404.337 75.2323 415.791C74.281 427.229 76.7058 434.711 82.1088 438.582C87.4867 442.434 95.6251 442.564 105.741 439.796C126.002 434.253 154.779 416.926 187.09 392.653C219.418 368.366 255.339 337.081 289.899 303.56C324.46 270.038 357.666 234.273 384.565 201.023C411.454 167.782 432.068 137.021 441.409 113.51C446.075 101.765 447.96 91.7514 446.334 84.119C445.518 80.2902 443.817 77.0568 441.143 74.5178C438.471 71.9812 434.855 70.1633 430.247 69.1171C421.047 67.0283 407.816 67.9982 389.981 72.5547C372.133 77.1144 349.621 85.2801 321.831 97.6387L322.034 98.0956L322.237 98.5524C349.999 86.2063 372.455 78.0643 390.228 73.5236C408.014 68.9797 421.059 68.0565 430.026 70.0923C434.501 71.1083 437.941 72.8571 440.454 75.2429C442.965 77.6263 444.576 80.671 445.355 84.3274C446.919 91.6653 445.124 101.45 440.479 113.141C431.197 136.505 410.664 167.17 383.787 200.394C356.919 233.607 323.74 269.343 289.203 302.842C254.666 336.341 218.777 367.597 186.489 391.853C154.184 416.123 125.539 433.343 105.477 438.832C95.4329 441.58 87.6856 441.347 82.6911 437.769C77.7217 434.209 75.2876 427.191 76.2289 415.874C77.169 404.571 81.4689 389.119 89.7788 368.906C98.0859 348.7 110.388 323.764 127.309 293.501L126.872 293.257Z" fill="black"/>
<path d="M103.315 196.986C103.573 197.085 103.862 196.957 103.961 196.699L105.576 192.498C105.675 192.241 105.546 191.951 105.288 191.852C105.031 191.753 104.741 191.882 104.642 192.14L103.207 195.873L99.4735 194.438C99.2157 194.339 98.9264 194.468 98.8274 194.726C98.7283 194.983 98.8569 195.273 99.1147 195.372L103.315 196.986ZM298.656 391.681L298.412 392.118C328.696 409.05 353.669 421.372 373.925 429.699C394.173 438.024 409.736 442.368 421.19 443.321C432.628 444.272 440.11 441.847 443.981 436.444C447.833 431.067 447.963 422.928 445.195 412.812C439.652 392.551 422.325 363.774 398.052 331.464C373.765 299.135 342.48 263.214 308.959 228.654C275.437 194.094 239.672 160.887 206.422 133.989C173.181 107.099 142.419 86.4849 118.909 77.1446C107.164 72.4782 97.1503 70.5934 89.5179 72.2197C85.6891 73.0355 82.4558 74.736 79.9167 77.4103C77.3802 80.0818 75.5622 83.6979 74.516 88.3062C72.4272 97.5066 73.3972 110.737 77.9537 128.573C82.5134 146.421 90.6791 168.932 103.038 196.723L103.494 196.519L103.951 196.316C91.6053 168.554 83.4632 146.099 78.9226 128.325C74.3786 110.539 73.4554 97.4945 75.4912 88.5276C76.5072 84.0523 78.256 80.6117 80.6419 78.0988C83.0252 75.5886 86.07 73.9768 89.7263 73.1977C97.0642 71.6342 106.849 73.4293 118.54 78.074C141.904 87.356 172.569 107.89 205.793 134.766C239.006 161.634 274.742 194.813 308.241 229.35C341.74 263.888 372.996 299.777 397.252 332.064C421.522 364.37 438.742 393.015 444.23 413.076C446.979 423.12 446.746 430.868 443.168 435.862C439.608 440.831 432.59 443.266 421.272 442.324C409.97 441.384 394.518 437.084 374.305 428.774C354.099 420.467 329.163 408.165 298.9 391.245L298.656 391.681Z" fill="black"/>
</svg>
