<svg width="51" height="32" viewBox="0 0 51 32" fill="none" xmlns="http://www.w3.org/2000/svg">
<path fill-rule="evenodd" clip-rule="evenodd" d="M28.1795 0.12914C28.4013 -0.442868 30.4677 0.987194 30.7537 2.41723C30.2445 3.40571 29.7731 4.37497 29.3377 5.32445C29.6264 5.65309 29.7841 6.00727 29.657 6.135C29.5507 6.26789 29.4461 6.40598 29.3435 6.54809C33.9558 5.38833 40.2806 3.94704 41.9549 4.13305C42.258 4.16673 42.2597 4.51265 42.0594 4.96898C42.6992 5.32535 43.4842 6.02896 43.0984 6.9934C42.6807 8.0341 34.8622 14.5093 30.4021 17.9709C36.3179 18.016 44.5755 18.9622 49.9627 22.4377C51.1066 23.0097 51.1072 26.1547 49.6775 25.8694C49.7728 25.5832 49.8484 24.9547 49.3914 24.7258C48.8194 24.4398 36.2348 19.5778 26.5105 20.4358C26.3238 20.6226 26.2282 20.9921 26.2244 21.0071C25.9384 21.0071 25.0806 18.4343 25.6521 18.1477C25.8984 18.1249 26.1607 18.1036 26.4373 18.0842C26.4493 17.7849 26.552 17.5754 26.7967 17.5754C27.375 17.5737 34.045 11.5179 38.8767 7.03832C35.0097 7.27696 30.3339 8.44149 27.6639 9.54516C27.429 10.0664 27.2147 10.5887 27.0242 11.094C26.7983 11.7547 26.5921 12.4033 26.4012 13.0383C28.0757 14.0576 27.8031 14.9032 27.3562 15.5735C27.0195 15.3403 26.5384 15.1342 25.9412 14.9543C25.9404 14.9712 25.9383 14.9868 25.9383 15.0012C25.9122 15.0012 25.8847 14.9969 25.8553 14.9934C23.6948 23.3761 24.5485 29.2125 25.6053 31.5901C18.2862 31.9751 19.5297 23.9292 22.781 14.3528C22.2837 14.2946 21.761 14.249 21.2185 14.2092C17.2251 20.5467 11.9865 26.6265 7.33573 25.2981C3.3316 24.1541 6.47774 17.8612 9.62381 17.0032C12.3565 17.2309 11.6325 17.8558 11.6258 17.8616C11.3398 17.8616 5.04778 22.1514 7.62186 23.8674C9.15745 24.7443 13.0957 19.6541 16.8142 14.0852C9.73733 14.1757 1.71705 15.5555 0.757601 18.4338C-3.3329 12.621 10.0784 11.1832 18.5467 11.4377C21.8742 6.25248 24.6547 1.4 24.782 1.2727C25.0635 0.992001 27.2743 1.26445 27.6238 1.54516C27.8103 1.06883 27.9979 0.59737 28.1795 0.12914ZM26.4656 4.50023C25.5961 6.39574 24.2898 9.01026 22.7019 11.7522C23.0497 11.8007 23.3639 11.852 23.6394 11.9084C24.525 9.46266 25.5001 6.95695 26.4656 4.50023Z" fill="#030C10"/>
</svg>
